<?xml version="1.0" encoding="UTF-8" standalone="no"?>
<!DOCTYPE svg PUBLIC "-//W3C//DTD SVG 1.0//EN"
 "http://www.w3.org/TR/2001/REC-SVG-20010904/DTD/svg10.dtd" [
 <!ATTLIST svg xmlns:xlink CDATA #FIXED "http://www.w3.org/1999/xlink">
]>
<!-- Generated by Graphviz version 2.20.2 (Tue Mar &#160;2 19:03:41 UTC 2010)
     For user: (jits) Jits,,, -->
<!-- Title: controllers_diagram Pages: 1 -->
<svg width="518pt" height="506pt"
 viewBox="0.00 0.00 518.00 506.00" xmlns="http://www.w3.org/2000/svg" xmlns:xlink="http://www.w3.org/1999/xlink">
<g id="graph0" class="graph" transform="scale(1 1) rotate(0) translate(4 502)">
<title>controllers_diagram</title>
<polygon style="fill:white;stroke:white;" points="-4,4 -4,-502 514,-502 514,4 -4,4"/>
<!-- _diagram_info -->
<g id="node1" class="node"><title>_diagram_info</title>
<text text-anchor="start" x="268.5" y="-337.8" style="font-family:Times New Roman;font-size:13.00;">Controllers diagram</text>
<text text-anchor="start" x="268.5" y="-320.8" style="font-family:Times New Roman;font-size:13.00;">Date: Jan 25 2011 &#45; 10:15</text>
<text text-anchor="start" x="268.5" y="-303.8" style="font-family:Times New Roman;font-size:13.00;">Migration version: 20110121152141</text>
<text text-anchor="start" x="268.5" y="-286.8" style="font-family:Times New Roman;font-size:13.00;">Generated by RailRoady 0.11.3</text>
<text text-anchor="start" x="268.5" y="-269.8" style="font-family:Times New Roman;font-size:13.00;">http://railroady.prestonlee.com</text>
</g>
<!-- Admin::BaseController -->
<g id="node2" class="node"><title>Admin::BaseController</title>
<polyline style="fill:none;stroke:black;" points="273,-101 486,-101 "/>
<path style="fill:none;stroke:black;" d="M486,-101C492,-101 498,-107 498,-113"/>
<polyline style="fill:none;stroke:black;" points="498,-113 498,-239 "/>
<path style="fill:none;stroke:black;" d="M498,-239C498,-245 492,-251 486,-251"/>
<polyline style="fill:none;stroke:black;" points="486,-251 273,-251 "/>
<path style="fill:none;stroke:black;" d="M273,-251C267,-251 261,-245 261,-239"/>
<polyline style="fill:none;stroke:black;" points="261,-239 261,-113 "/>
<path style="fill:none;stroke:black;" d="M261,-113C261,-107 267,-101 273,-101"/>
<text text-anchor="middle" x="379" y="-233.9" style="font-family:Times New Roman;font-size:14.00;">Admin::BaseController</text>
<polyline style="fill:none;stroke:black;" points="261,-226 498,-226 "/>
<text text-anchor="start" x="268.5" y="-209.4" style="font-family:Times New Roman;font-size:14.00;">_one_time_conditions_valid_61?</text>
<text text-anchor="start" x="268.5" y="-192.4" style="font-family:Times New Roman;font-size:14.00;">_one_time_conditions_valid_63?</text>
<polyline style="fill:none;stroke:black;" points="261,-184 498,-184 "/>
<polyline style="fill:none;stroke:black;" points="261,-160 498,-160 "/>
<text text-anchor="start" x="268.5" y="-142.9" style="font-family:Times New Roman;font-size:14.00;">_layout</text>
<text text-anchor="start" x="268.5" y="-125.9" style="font-family:Times New Roman;font-size:14.00;">_run_process_action_callbacks</text>
<text text-anchor="start" x="268.5" y="-108.9" style="font-family:Times New Roman;font-size:14.00;">verify_admin</text>
</g>
<!-- Admin::UsersController -->
<g id="node3" class="node"><title>Admin::UsersController</title>
<polyline style="fill:none;stroke:black;" points="13,-120 226,-120 "/>
<path style="fill:none;stroke:black;" d="M226,-120C232,-120 238,-126 238,-132"/>
<polyline style="fill:none;stroke:black;" points="238,-132 238,-343 "/>
<path style="fill:none;stroke:black;" d="M238,-343C238,-349 232,-355 226,-355"/>
<polyline style="fill:none;stroke:black;" points="226,-355 13,-355 "/>
<path style="fill:none;stroke:black;" d="M13,-355C7,-355 1,-349 1,-343"/>
<polyline style="fill:none;stroke:black;" points="1,-343 1,-132 "/>
<path style="fill:none;stroke:black;" d="M1,-132C1,-126 7,-120 13,-120"/>
<text text-anchor="middle" x="119" y="-337.9" style="font-family:Times New Roman;font-size:14.00;">Admin::UsersController</text>
<polyline style="fill:none;stroke:black;" points="1,-330 238,-330 "/>
<text text-anchor="start" x="8.5" y="-313.4" style="font-family:Times New Roman;font-size:14.00;">_one_time_conditions_valid_65?</text>
<text text-anchor="start" x="8.5" y="-296.4" style="font-family:Times New Roman;font-size:14.00;">create</text>
<text text-anchor="start" x="8.5" y="-279.4" style="font-family:Times New Roman;font-size:14.00;">destroy</text>
<text text-anchor="start" x="8.5" y="-262.4" style="font-family:Times New Roman;font-size:14.00;">edit</text>
<text text-anchor="start" x="8.5" y="-245.4" style="font-family:Times New Roman;font-size:14.00;">find_user</text>
<text text-anchor="start" x="8.5" y="-228.4" style="font-family:Times New Roman;font-size:14.00;">index</text>
<text text-anchor="start" x="8.5" y="-211.4" style="font-family:Times New Roman;font-size:14.00;">new</text>
<text text-anchor="start" x="8.5" y="-194.4" style="font-family:Times New Roman;font-size:14.00;">update</text>
<polyline style="fill:none;stroke:black;" points="1,-186 238,-186 "/>
<polyline style="fill:none;stroke:black;" points="1,-162 238,-162 "/>
<text text-anchor="start" x="8.5" y="-145.4" style="font-family:Times New Roman;font-size:14.00;">_layout</text>
<text text-anchor="start" x="8.5" y="-128.4" style="font-family:Times New Roman;font-size:14.00;">_run_process_action_callbacks</text>
</g>
<!-- Admin::DashboardController -->
<g id="node4" class="node"><title>Admin::DashboardController</title>
<polyline style="fill:none;stroke:black;" points="33,-380 221,-380 "/>
<path style="fill:none;stroke:black;" d="M221,-380C227,-380 233,-386 233,-392"/>
<polyline style="fill:none;stroke:black;" points="233,-392 233,-467 "/>
<path style="fill:none;stroke:black;" d="M233,-467C233,-473 227,-479 221,-479"/>
<polyline style="fill:none;stroke:black;" points="221,-479 33,-479 "/>
<path style="fill:none;stroke:black;" d="M33,-479C27,-479 21,-473 21,-467"/>
<polyline style="fill:none;stroke:black;" points="21,-467 21,-392 "/>
<path style="fill:none;stroke:black;" d="M21,-392C21,-386 27,-380 33,-380"/>
<text text-anchor="middle" x="127" y="-461.9" style="font-family:Times New Roman;font-size:14.00;">Admin::DashboardController</text>
<polyline style="fill:none;stroke:black;" points="21,-454 233,-454 "/>
<text text-anchor="start" x="29" y="-436.9" style="font-family:Times New Roman;font-size:14.00;">index</text>
<polyline style="fill:none;stroke:black;" points="21,-429 233,-429 "/>
<polyline style="fill:none;stroke:black;" points="21,-405 233,-405 "/>
<text text-anchor="start" x="29" y="-387.9" style="font-family:Times New Roman;font-size:14.00;">_layout</text>
</g>
<!-- ApplicationController -->
<g id="node5" class="node"><title>ApplicationController</title>
<polyline style="fill:none;stroke:black;" points="273,-381 486,-381 "/>
<path style="fill:none;stroke:black;" d="M486,-381C492,-381 498,-387 498,-393"/>
<polyline style="fill:none;stroke:black;" points="498,-393 498,-485 "/>
<path style="fill:none;stroke:black;" d="M498,-485C498,-491 492,-497 486,-497"/>
<polyline style="fill:none;stroke:black;" points="486,-497 273,-497 "/>
<path style="fill:none;stroke:black;" d="M273,-497C267,-497 261,-491 261,-485"/>
<polyline style="fill:none;stroke:black;" points="261,-485 261,-393 "/>
<path style="fill:none;stroke:black;" d="M261,-393C261,-387 267,-381 273,-381"/>
<text text-anchor="middle" x="379" y="-479.9" style="font-family:Times New Roman;font-size:14.00;">ApplicationController</text>
<polyline style="fill:none;stroke:black;" points="261,-472 498,-472 "/>
<text text-anchor="start" x="268.5" y="-454.9" style="font-family:Times New Roman;font-size:14.00;">_one_time_conditions_valid_59?</text>
<polyline style="fill:none;stroke:black;" points="261,-447 498,-447 "/>
<polyline style="fill:none;stroke:black;" points="261,-423 498,-423 "/>
<text text-anchor="start" x="268.5" y="-406.4" style="font-family:Times New Roman;font-size:14.00;">_layout</text>
<text text-anchor="start" x="268.5" y="-389.4" style="font-family:Times New Roman;font-size:14.00;">_run_process_action_callbacks</text>
</g>
<!-- HomeController -->
<g id="node6" class="node"><title>HomeController</title>
<polyline style="fill:none;stroke:black;" points="133,-0 234,-0 "/>
<path style="fill:none;stroke:black;" d="M234,-0C240,-0 246,-6 246,-12"/>
<polyline style="fill:none;stroke:black;" points="246,-12 246,-87 "/>
<path style="fill:none;stroke:black;" d="M246,-87C246,-93 240,-99 234,-99"/>
<polyline style="fill:none;stroke:black;" points="234,-99 133,-99 "/>
<path style="fill:none;stroke:black;" d="M133,-99C127,-99 121,-93 121,-87"/>
<polyline style="fill:none;stroke:black;" points="121,-87 121,-12 "/>
<path style="fill:none;stroke:black;" d="M121,-12C121,-6 127,-0 133,-0"/>
<text text-anchor="middle" x="183" y="-81.9" style="font-family:Times New Roman;font-size:14.00;">HomeController</text>
<polyline style="fill:none;stroke:black;" points="121,-74 246,-74 "/>
<text text-anchor="start" x="128.5" y="-56.9" style="font-family:Times New Roman;font-size:14.00;">index</text>
<polyline style="fill:none;stroke:black;" points="121,-49 246,-49 "/>
<polyline style="fill:none;stroke:black;" points="121,-25 246,-25 "/>
<text text-anchor="start" x="128.5" y="-7.9" style="font-family:Times New Roman;font-size:14.00;">_layout</text>
</g>
</g>
</svg>
