<?xml version="1.0" encoding="UTF-8" standalone="no"?>
<!DOCTYPE svg PUBLIC "-//W3C//DTD SVG 1.0//EN"
 "http://www.w3.org/TR/2001/REC-SVG-20010904/DTD/svg10.dtd" [
 <!ATTLIST svg xmlns:xlink CDATA #FIXED "http://www.w3.org/1999/xlink">
]>
<!-- Generated by Graphviz version 2.20.2 (Tue Mar &#160;2 21:46:26 UTC 2010)
     For user: (jits) Jits,,, -->
<!-- Title: controllers_diagram Pages: 1 -->
<svg width="678pt" height="588pt"
 viewBox="0.00 0.00 678.00 588.00" xmlns="http://www.w3.org/2000/svg" xmlns:xlink="http://www.w3.org/1999/xlink">
<g id="graph0" class="graph" transform="scale(1 1) rotate(0) translate(4 584)">
<title>controllers_diagram</title>
<polygon style="fill:white;stroke:white;" points="-4,4 -4,-584 674,-584 674,4 -4,4"/>
<!-- _diagram_info -->
<g id="node1" class="node"><title>_diagram_info</title>
<text text-anchor="start" x="428.5" y="-539.8" style="font-family:Times New Roman;font-size:13.00;">Controllers diagram</text>
<text text-anchor="start" x="428.5" y="-522.8" style="font-family:Times New Roman;font-size:13.00;">Date: Feb 02 2011 &#45; 00:12</text>
<text text-anchor="start" x="428.5" y="-505.8" style="font-family:Times New Roman;font-size:13.00;">Migration version: 20110126113319</text>
<text text-anchor="start" x="428.5" y="-488.8" style="font-family:Times New Roman;font-size:13.00;">Generated by RailRoady 1.0.0</text>
<text text-anchor="start" x="428.5" y="-471.8" style="font-family:Times New Roman;font-size:13.00;">http://railroady.prestonlee.com</text>
</g>
<!-- ComponentsController -->
<g id="node2" class="node"><title>ComponentsController</title>
<polyline style="fill:none;stroke:black;" points="160,-378 307,-378 "/>
<path style="fill:none;stroke:black;" d="M307,-378C313,-378 319,-384 319,-390"/>
<polyline style="fill:none;stroke:black;" points="319,-390 319,-567 "/>
<path style="fill:none;stroke:black;" d="M319,-567C319,-573 313,-579 307,-579"/>
<polyline style="fill:none;stroke:black;" points="307,-579 160,-579 "/>
<path style="fill:none;stroke:black;" d="M160,-579C154,-579 148,-573 148,-567"/>
<polyline style="fill:none;stroke:black;" points="148,-567 148,-390 "/>
<path style="fill:none;stroke:black;" d="M148,-390C148,-384 154,-378 160,-378"/>
<text text-anchor="middle" x="233" y="-561.9" style="font-family:Times New Roman;font-size:14.00;">ComponentsController</text>
<polyline style="fill:none;stroke:black;" points="148,-554 319,-554 "/>
<text text-anchor="start" x="155.5" y="-536.9" style="font-family:Times New Roman;font-size:14.00;">create</text>
<text text-anchor="start" x="155.5" y="-519.9" style="font-family:Times New Roman;font-size:14.00;">destroy</text>
<text text-anchor="start" x="155.5" y="-502.9" style="font-family:Times New Roman;font-size:14.00;">edit</text>
<text text-anchor="start" x="155.5" y="-485.9" style="font-family:Times New Roman;font-size:14.00;">index</text>
<text text-anchor="start" x="155.5" y="-468.9" style="font-family:Times New Roman;font-size:14.00;">new</text>
<text text-anchor="start" x="155.5" y="-451.9" style="font-family:Times New Roman;font-size:14.00;">show</text>
<text text-anchor="start" x="155.5" y="-434.9" style="font-family:Times New Roman;font-size:14.00;">update</text>
<polyline style="fill:none;stroke:black;" points="148,-427 319,-427 "/>
<polyline style="fill:none;stroke:black;" points="148,-403 319,-403 "/>
<text text-anchor="start" x="155.5" y="-385.9" style="font-family:Times New Roman;font-size:14.00;">_layout</text>
</g>
<!-- ApplicationController -->
<g id="node3" class="node"><title>ApplicationController</title>
<polyline style="fill:none;stroke:black;" points="349,-127 562,-127 "/>
<path style="fill:none;stroke:black;" d="M562,-127C568,-127 574,-133 574,-139"/>
<polyline style="fill:none;stroke:black;" points="574,-139 574,-265 "/>
<path style="fill:none;stroke:black;" d="M574,-265C574,-271 568,-277 562,-277"/>
<polyline style="fill:none;stroke:black;" points="562,-277 349,-277 "/>
<path style="fill:none;stroke:black;" d="M349,-277C343,-277 337,-271 337,-265"/>
<polyline style="fill:none;stroke:black;" points="337,-265 337,-139 "/>
<path style="fill:none;stroke:black;" d="M337,-139C337,-133 343,-127 349,-127"/>
<text text-anchor="middle" x="455" y="-259.9" style="font-family:Times New Roman;font-size:14.00;">ApplicationController</text>
<polyline style="fill:none;stroke:black;" points="337,-252 574,-252 "/>
<text text-anchor="start" x="344.5" y="-235.4" style="font-family:Times New Roman;font-size:14.00;">_one_time_conditions_valid_73?</text>
<text text-anchor="start" x="344.5" y="-218.4" style="font-family:Times New Roman;font-size:14.00;">_one_time_conditions_valid_75?</text>
<polyline style="fill:none;stroke:black;" points="337,-210 574,-210 "/>
<polyline style="fill:none;stroke:black;" points="337,-186 574,-186 "/>
<text text-anchor="start" x="344.5" y="-168.9" style="font-family:Times New Roman;font-size:14.00;">_layout</text>
<text text-anchor="start" x="344.5" y="-151.9" style="font-family:Times New Roman;font-size:14.00;">_run_process_action_callbacks</text>
<text text-anchor="start" x="344.5" y="-134.9" style="font-family:Times New Roman;font-size:14.00;">get_selected_site_tab</text>
</g>
<!-- Admin::BaseController -->
<g id="node4" class="node"><title>Admin::BaseController</title>
<polyline style="fill:none;stroke:black;" points="349,-295 562,-295 "/>
<path style="fill:none;stroke:black;" d="M562,-295C568,-295 574,-301 574,-307"/>
<polyline style="fill:none;stroke:black;" points="574,-307 574,-433 "/>
<path style="fill:none;stroke:black;" d="M574,-433C574,-439 568,-445 562,-445"/>
<polyline style="fill:none;stroke:black;" points="562,-445 349,-445 "/>
<path style="fill:none;stroke:black;" d="M349,-445C343,-445 337,-439 337,-433"/>
<polyline style="fill:none;stroke:black;" points="337,-433 337,-307 "/>
<path style="fill:none;stroke:black;" d="M337,-307C337,-301 343,-295 349,-295"/>
<text text-anchor="middle" x="455" y="-427.9" style="font-family:Times New Roman;font-size:14.00;">Admin::BaseController</text>
<polyline style="fill:none;stroke:black;" points="337,-420 574,-420 "/>
<text text-anchor="start" x="344.5" y="-403.4" style="font-family:Times New Roman;font-size:14.00;">_one_time_conditions_valid_77?</text>
<text text-anchor="start" x="344.5" y="-386.4" style="font-family:Times New Roman;font-size:14.00;">_one_time_conditions_valid_79?</text>
<polyline style="fill:none;stroke:black;" points="337,-378 574,-378 "/>
<polyline style="fill:none;stroke:black;" points="337,-354 574,-354 "/>
<text text-anchor="start" x="344.5" y="-336.9" style="font-family:Times New Roman;font-size:14.00;">_layout</text>
<text text-anchor="start" x="344.5" y="-319.9" style="font-family:Times New Roman;font-size:14.00;">_run_process_action_callbacks</text>
<text text-anchor="start" x="344.5" y="-302.9" style="font-family:Times New Roman;font-size:14.00;">verify_admin</text>
</g>
<!-- Admin::UsersController -->
<g id="node5" class="node"><title>Admin::UsersController</title>
<polyline style="fill:none;stroke:black;" points="97,-126 310,-126 "/>
<path style="fill:none;stroke:black;" d="M310,-126C316,-126 322,-132 322,-138"/>
<polyline style="fill:none;stroke:black;" points="322,-138 322,-349 "/>
<path style="fill:none;stroke:black;" d="M322,-349C322,-355 316,-361 310,-361"/>
<polyline style="fill:none;stroke:black;" points="310,-361 97,-361 "/>
<path style="fill:none;stroke:black;" d="M97,-361C91,-361 85,-355 85,-349"/>
<polyline style="fill:none;stroke:black;" points="85,-349 85,-138 "/>
<path style="fill:none;stroke:black;" d="M85,-138C85,-132 91,-126 97,-126"/>
<text text-anchor="middle" x="203" y="-343.9" style="font-family:Times New Roman;font-size:14.00;">Admin::UsersController</text>
<polyline style="fill:none;stroke:black;" points="85,-336 322,-336 "/>
<text text-anchor="start" x="92.5" y="-319.4" style="font-family:Times New Roman;font-size:14.00;">_one_time_conditions_valid_81?</text>
<text text-anchor="start" x="92.5" y="-302.4" style="font-family:Times New Roman;font-size:14.00;">create</text>
<text text-anchor="start" x="92.5" y="-285.4" style="font-family:Times New Roman;font-size:14.00;">destroy</text>
<text text-anchor="start" x="92.5" y="-268.4" style="font-family:Times New Roman;font-size:14.00;">edit</text>
<text text-anchor="start" x="92.5" y="-251.4" style="font-family:Times New Roman;font-size:14.00;">find_user</text>
<text text-anchor="start" x="92.5" y="-234.4" style="font-family:Times New Roman;font-size:14.00;">index</text>
<text text-anchor="start" x="92.5" y="-217.4" style="font-family:Times New Roman;font-size:14.00;">new</text>
<text text-anchor="start" x="92.5" y="-200.4" style="font-family:Times New Roman;font-size:14.00;">update</text>
<polyline style="fill:none;stroke:black;" points="85,-192 322,-192 "/>
<polyline style="fill:none;stroke:black;" points="85,-168 322,-168 "/>
<text text-anchor="start" x="92.5" y="-151.4" style="font-family:Times New Roman;font-size:14.00;">_layout</text>
<text text-anchor="start" x="92.5" y="-134.4" style="font-family:Times New Roman;font-size:14.00;">_run_process_action_callbacks</text>
</g>
<!-- Admin::DashboardController -->
<g id="node6" class="node"><title>Admin::DashboardController</title>
<polyline style="fill:none;stroke:black;" points="223,-0 411,-0 "/>
<path style="fill:none;stroke:black;" d="M411,-0C417,-0 423,-6 423,-12"/>
<polyline style="fill:none;stroke:black;" points="423,-12 423,-87 "/>
<path style="fill:none;stroke:black;" d="M423,-87C423,-93 417,-99 411,-99"/>
<polyline style="fill:none;stroke:black;" points="411,-99 223,-99 "/>
<path style="fill:none;stroke:black;" d="M223,-99C217,-99 211,-93 211,-87"/>
<polyline style="fill:none;stroke:black;" points="211,-87 211,-12 "/>
<path style="fill:none;stroke:black;" d="M211,-12C211,-6 217,-0 223,-0"/>
<text text-anchor="middle" x="317" y="-81.9" style="font-family:Times New Roman;font-size:14.00;">Admin::DashboardController</text>
<polyline style="fill:none;stroke:black;" points="211,-74 423,-74 "/>
<text text-anchor="start" x="219" y="-56.9" style="font-family:Times New Roman;font-size:14.00;">index</text>
<polyline style="fill:none;stroke:black;" points="211,-49 423,-49 "/>
<polyline style="fill:none;stroke:black;" points="211,-25 423,-25 "/>
<text text-anchor="start" x="219" y="-7.9" style="font-family:Times New Roman;font-size:14.00;">_layout</text>
</g>
<!-- HomeController -->
<g id="node7" class="node"><title>HomeController</title>
<polyline style="fill:none;stroke:black;" points="13,-462 114,-462 "/>
<path style="fill:none;stroke:black;" d="M114,-462C120,-462 126,-468 126,-474"/>
<polyline style="fill:none;stroke:black;" points="126,-474 126,-549 "/>
<path style="fill:none;stroke:black;" d="M126,-549C126,-555 120,-561 114,-561"/>
<polyline style="fill:none;stroke:black;" points="114,-561 13,-561 "/>
<path style="fill:none;stroke:black;" d="M13,-561C7,-561 1,-555 1,-549"/>
<polyline style="fill:none;stroke:black;" points="1,-549 1,-474 "/>
<path style="fill:none;stroke:black;" d="M1,-474C1,-468 7,-462 13,-462"/>
<text text-anchor="middle" x="63" y="-543.9" style="font-family:Times New Roman;font-size:14.00;">HomeController</text>
<polyline style="fill:none;stroke:black;" points="1,-536 126,-536 "/>
<text text-anchor="start" x="8.5" y="-518.9" style="font-family:Times New Roman;font-size:14.00;">index</text>
<polyline style="fill:none;stroke:black;" points="1,-511 126,-511 "/>
<polyline style="fill:none;stroke:black;" points="1,-487 126,-487 "/>
<text text-anchor="start" x="8.5" y="-469.9" style="font-family:Times New Roman;font-size:14.00;">_layout</text>
</g>
</g>
</svg>
