<?xml version="1.0" encoding="UTF-8" standalone="no"?>
<!DOCTYPE svg PUBLIC "-//W3C//DTD SVG 1.0//EN"
 "http://www.w3.org/TR/2001/REC-SVG-20010904/DTD/svg10.dtd" [
 <!ATTLIST svg xmlns:xlink CDATA #FIXED "http://www.w3.org/1999/xlink">
]>
<!-- Generated by Graphviz version 2.20.2 (Tue Mar &#160;2 21:46:26 UTC 2010)
     For user: (jits) Jits,,, -->
<!-- Title: controllers_diagram Pages: 1 -->
<svg width="663pt" height="612pt"
 viewBox="0.00 0.00 663.00 612.00" xmlns="http://www.w3.org/2000/svg" xmlns:xlink="http://www.w3.org/1999/xlink">
<g id="graph0" class="graph" transform="scale(1 1) rotate(0) translate(4 608)">
<title>controllers_diagram</title>
<polygon style="fill:white;stroke:white;" points="-4,4 -4,-608 659,-608 659,4 -4,4"/>
<!-- _diagram_info -->
<g id="node1" class="node"><title>_diagram_info</title>
<text text-anchor="start" x="261.5" y="-100.8" style="font-family:Times New Roman;font-size:13.00;">Controllers diagram</text>
<text text-anchor="start" x="261.5" y="-83.8" style="font-family:Times New Roman;font-size:13.00;">Date: Feb 02 2011 &#45; 23:57</text>
<text text-anchor="start" x="261.5" y="-66.8" style="font-family:Times New Roman;font-size:13.00;">Migration version: 20110126113319</text>
<text text-anchor="start" x="261.5" y="-49.8" style="font-family:Times New Roman;font-size:13.00;">Generated by RailRoady 1.0.0</text>
<text text-anchor="start" x="261.5" y="-32.8" style="font-family:Times New Roman;font-size:13.00;">http://railroady.prestonlee.com</text>
</g>
<!-- ComponentsController -->
<g id="node2" class="node"><title>ComponentsController</title>
<polyline style="fill:none;stroke:black;" points="128,-138 350,-138 "/>
<path style="fill:none;stroke:black;" d="M350,-138C356,-138 362,-144 362,-150"/>
<polyline style="fill:none;stroke:black;" points="362,-150 362,-395 "/>
<path style="fill:none;stroke:black;" d="M362,-395C362,-401 356,-407 350,-407"/>
<polyline style="fill:none;stroke:black;" points="350,-407 128,-407 "/>
<path style="fill:none;stroke:black;" d="M128,-407C122,-407 116,-401 116,-395"/>
<polyline style="fill:none;stroke:black;" points="116,-395 116,-150 "/>
<path style="fill:none;stroke:black;" d="M116,-150C116,-144 122,-138 128,-138"/>
<text text-anchor="middle" x="239" y="-389.9" style="font-family:Times New Roman;font-size:14.00;">ComponentsController</text>
<polyline style="fill:none;stroke:black;" points="116,-382 362,-382 "/>
<text text-anchor="start" x="124" y="-365.4" style="font-family:Times New Roman;font-size:14.00;">_callback_before_267</text>
<text text-anchor="start" x="124" y="-348.4" style="font-family:Times New Roman;font-size:14.00;">_one_time_conditions_valid_264?</text>
<text text-anchor="start" x="124" y="-331.4" style="font-family:Times New Roman;font-size:14.00;">_one_time_conditions_valid_268?</text>
<text text-anchor="start" x="124" y="-314.4" style="font-family:Times New Roman;font-size:14.00;">create</text>
<text text-anchor="start" x="124" y="-297.4" style="font-family:Times New Roman;font-size:14.00;">destroy</text>
<text text-anchor="start" x="124" y="-280.4" style="font-family:Times New Roman;font-size:14.00;">edit</text>
<text text-anchor="start" x="124" y="-263.4" style="font-family:Times New Roman;font-size:14.00;">index</text>
<text text-anchor="start" x="124" y="-246.4" style="font-family:Times New Roman;font-size:14.00;">new</text>
<text text-anchor="start" x="124" y="-229.4" style="font-family:Times New Roman;font-size:14.00;">show</text>
<text text-anchor="start" x="124" y="-212.4" style="font-family:Times New Roman;font-size:14.00;">update</text>
<polyline style="fill:none;stroke:black;" points="116,-204 362,-204 "/>
<polyline style="fill:none;stroke:black;" points="116,-180 362,-180 "/>
<text text-anchor="start" x="124" y="-163.4" style="font-family:Times New Roman;font-size:14.00;">_layout</text>
<text text-anchor="start" x="124" y="-146.4" style="font-family:Times New Roman;font-size:14.00;">_run_process_action_callbacks</text>
</g>
<!-- ApplicationController -->
<g id="node3" class="node"><title>ApplicationController</title>
<polyline style="fill:none;stroke:black;" points="404,-138 626,-138 "/>
<path style="fill:none;stroke:black;" d="M626,-138C632,-138 638,-144 638,-150"/>
<polyline style="fill:none;stroke:black;" points="638,-150 638,-345 "/>
<path style="fill:none;stroke:black;" d="M638,-345C638,-351 632,-357 626,-357"/>
<polyline style="fill:none;stroke:black;" points="626,-357 404,-357 "/>
<path style="fill:none;stroke:black;" d="M404,-357C398,-357 392,-351 392,-345"/>
<polyline style="fill:none;stroke:black;" points="392,-345 392,-150 "/>
<path style="fill:none;stroke:black;" d="M392,-150C392,-144 398,-138 404,-138"/>
<text text-anchor="middle" x="515" y="-339.9" style="font-family:Times New Roman;font-size:14.00;">ApplicationController</text>
<polyline style="fill:none;stroke:black;" points="392,-332 638,-332 "/>
<text text-anchor="start" x="400" y="-314.9" style="font-family:Times New Roman;font-size:14.00;">_one_time_conditions_valid_258?</text>
<text text-anchor="start" x="400" y="-297.9" style="font-family:Times New Roman;font-size:14.00;">_one_time_conditions_valid_260?</text>
<text text-anchor="start" x="400" y="-280.9" style="font-family:Times New Roman;font-size:14.00;">_one_time_conditions_valid_262?</text>
<polyline style="fill:none;stroke:black;" points="392,-273 638,-273 "/>
<text text-anchor="start" x="400" y="-255.9" style="font-family:Times New Roman;font-size:14.00;">get_selected_site_tab</text>
<text text-anchor="start" x="400" y="-238.9" style="font-family:Times New Roman;font-size:14.00;">is_api_request?</text>
<text text-anchor="start" x="400" y="-221.9" style="font-family:Times New Roman;font-size:14.00;">is_non_html_request?</text>
<text text-anchor="start" x="400" y="-204.9" style="font-family:Times New Roman;font-size:14.00;">set_previous_url</text>
<text text-anchor="start" x="400" y="-187.9" style="font-family:Times New Roman;font-size:14.00;">stored_location_for</text>
<polyline style="fill:none;stroke:black;" points="392,-180 638,-180 "/>
<text text-anchor="start" x="400" y="-163.4" style="font-family:Times New Roman;font-size:14.00;">_layout</text>
<text text-anchor="start" x="400" y="-146.4" style="font-family:Times New Roman;font-size:14.00;">_run_process_action_callbacks</text>
</g>
<!-- Admin::BaseController -->
<g id="node4" class="node"><title>Admin::BaseController</title>
<polyline style="fill:none;stroke:black;" points="128,-438 350,-438 "/>
<path style="fill:none;stroke:black;" d="M350,-438C356,-438 362,-444 362,-450"/>
<polyline style="fill:none;stroke:black;" points="362,-450 362,-576 "/>
<path style="fill:none;stroke:black;" d="M362,-576C362,-582 356,-588 350,-588"/>
<polyline style="fill:none;stroke:black;" points="350,-588 128,-588 "/>
<path style="fill:none;stroke:black;" d="M128,-588C122,-588 116,-582 116,-576"/>
<polyline style="fill:none;stroke:black;" points="116,-576 116,-450 "/>
<path style="fill:none;stroke:black;" d="M116,-450C116,-444 122,-438 128,-438"/>
<text text-anchor="middle" x="239" y="-570.9" style="font-family:Times New Roman;font-size:14.00;">Admin::BaseController</text>
<polyline style="fill:none;stroke:black;" points="116,-563 362,-563 "/>
<text text-anchor="start" x="124" y="-546.4" style="font-family:Times New Roman;font-size:14.00;">_one_time_conditions_valid_270?</text>
<text text-anchor="start" x="124" y="-529.4" style="font-family:Times New Roman;font-size:14.00;">_one_time_conditions_valid_272?</text>
<polyline style="fill:none;stroke:black;" points="116,-521 362,-521 "/>
<polyline style="fill:none;stroke:black;" points="116,-497 362,-497 "/>
<text text-anchor="start" x="124" y="-479.9" style="font-family:Times New Roman;font-size:14.00;">_layout</text>
<text text-anchor="start" x="124" y="-462.9" style="font-family:Times New Roman;font-size:14.00;">_run_process_action_callbacks</text>
<text text-anchor="start" x="124" y="-445.9" style="font-family:Times New Roman;font-size:14.00;">verify_admin</text>
</g>
<!-- Admin::UsersController -->
<g id="node5" class="node"><title>Admin::UsersController</title>
<polyline style="fill:none;stroke:black;" points="404,-368 626,-368 "/>
<path style="fill:none;stroke:black;" d="M626,-368C632,-368 638,-374 638,-380"/>
<polyline style="fill:none;stroke:black;" points="638,-380 638,-591 "/>
<path style="fill:none;stroke:black;" d="M638,-591C638,-597 632,-603 626,-603"/>
<polyline style="fill:none;stroke:black;" points="626,-603 404,-603 "/>
<path style="fill:none;stroke:black;" d="M404,-603C398,-603 392,-597 392,-591"/>
<polyline style="fill:none;stroke:black;" points="392,-591 392,-380 "/>
<path style="fill:none;stroke:black;" d="M392,-380C392,-374 398,-368 404,-368"/>
<text text-anchor="middle" x="515" y="-585.9" style="font-family:Times New Roman;font-size:14.00;">Admin::UsersController</text>
<polyline style="fill:none;stroke:black;" points="392,-578 638,-578 "/>
<text text-anchor="start" x="400" y="-561.4" style="font-family:Times New Roman;font-size:14.00;">_one_time_conditions_valid_274?</text>
<text text-anchor="start" x="400" y="-544.4" style="font-family:Times New Roman;font-size:14.00;">create</text>
<text text-anchor="start" x="400" y="-527.4" style="font-family:Times New Roman;font-size:14.00;">destroy</text>
<text text-anchor="start" x="400" y="-510.4" style="font-family:Times New Roman;font-size:14.00;">edit</text>
<text text-anchor="start" x="400" y="-493.4" style="font-family:Times New Roman;font-size:14.00;">find_user</text>
<text text-anchor="start" x="400" y="-476.4" style="font-family:Times New Roman;font-size:14.00;">index</text>
<text text-anchor="start" x="400" y="-459.4" style="font-family:Times New Roman;font-size:14.00;">new</text>
<text text-anchor="start" x="400" y="-442.4" style="font-family:Times New Roman;font-size:14.00;">update</text>
<polyline style="fill:none;stroke:black;" points="392,-434 638,-434 "/>
<polyline style="fill:none;stroke:black;" points="392,-410 638,-410 "/>
<text text-anchor="start" x="400" y="-393.4" style="font-family:Times New Roman;font-size:14.00;">_layout</text>
<text text-anchor="start" x="400" y="-376.4" style="font-family:Times New Roman;font-size:14.00;">_run_process_action_callbacks</text>
</g>
<!-- Admin::DashboardController -->
<g id="node6" class="node"><title>Admin::DashboardController</title>
<polyline style="fill:none;stroke:black;" points="13,-23 201,-23 "/>
<path style="fill:none;stroke:black;" d="M201,-23C207,-23 213,-29 213,-35"/>
<polyline style="fill:none;stroke:black;" points="213,-35 213,-110 "/>
<path style="fill:none;stroke:black;" d="M213,-110C213,-116 207,-122 201,-122"/>
<polyline style="fill:none;stroke:black;" points="201,-122 13,-122 "/>
<path style="fill:none;stroke:black;" d="M13,-122C7,-122 1,-116 1,-110"/>
<polyline style="fill:none;stroke:black;" points="1,-110 1,-35 "/>
<path style="fill:none;stroke:black;" d="M1,-35C1,-29 7,-23 13,-23"/>
<text text-anchor="middle" x="107" y="-104.9" style="font-family:Times New Roman;font-size:14.00;">Admin::DashboardController</text>
<polyline style="fill:none;stroke:black;" points="1,-97 213,-97 "/>
<text text-anchor="start" x="9" y="-79.9" style="font-family:Times New Roman;font-size:14.00;">index</text>
<polyline style="fill:none;stroke:black;" points="1,-72 213,-72 "/>
<polyline style="fill:none;stroke:black;" points="1,-48 213,-48 "/>
<text text-anchor="start" x="9" y="-30.9" style="font-family:Times New Roman;font-size:14.00;">_layout</text>
</g>
<!-- HomeController -->
<g id="node7" class="node"><title>HomeController</title>
<polyline style="fill:none;stroke:black;" points="542,-0 643,-0 "/>
<path style="fill:none;stroke:black;" d="M643,-0C649,-0 655,-6 655,-12"/>
<polyline style="fill:none;stroke:black;" points="655,-12 655,-87 "/>
<path style="fill:none;stroke:black;" d="M655,-87C655,-93 649,-99 643,-99"/>
<polyline style="fill:none;stroke:black;" points="643,-99 542,-99 "/>
<path style="fill:none;stroke:black;" d="M542,-99C536,-99 530,-93 530,-87"/>
<polyline style="fill:none;stroke:black;" points="530,-87 530,-12 "/>
<path style="fill:none;stroke:black;" d="M530,-12C530,-6 536,-0 542,-0"/>
<text text-anchor="middle" x="592" y="-81.9" style="font-family:Times New Roman;font-size:14.00;">HomeController</text>
<polyline style="fill:none;stroke:black;" points="530,-74 655,-74 "/>
<text text-anchor="start" x="537.5" y="-56.9" style="font-family:Times New Roman;font-size:14.00;">index</text>
<polyline style="fill:none;stroke:black;" points="530,-49 655,-49 "/>
<polyline style="fill:none;stroke:black;" points="530,-25 655,-25 "/>
<text text-anchor="start" x="537.5" y="-7.9" style="font-family:Times New Roman;font-size:14.00;">_layout</text>
</g>
</g>
</svg>
