<?xml version="1.0" encoding="UTF-8" standalone="no"?>
<!DOCTYPE svg PUBLIC "-//W3C//DTD SVG 1.0//EN"
 "http://www.w3.org/TR/2001/REC-SVG-20010904/DTD/svg10.dtd" [
 <!ATTLIST svg xmlns:xlink CDATA #FIXED "http://www.w3.org/1999/xlink">
]>
<!-- Generated by Graphviz version 2.20.2 (Tue Mar &#160;2 19:03:41 UTC 2010)
     For user: (jits) Jits,,, -->
<!-- Title: controllers_diagram Pages: 1 -->
<svg width="640pt" height="556pt"
 viewBox="0.00 0.00 640.00 556.00" xmlns="http://www.w3.org/2000/svg" xmlns:xlink="http://www.w3.org/1999/xlink">
<g id="graph0" class="graph" transform="scale(1 1) rotate(0) translate(4 552)">
<title>controllers_diagram</title>
<polygon style="fill:white;stroke:white;" points="-4,4 -4,-552 636,-552 636,4 -4,4"/>
<!-- _diagram_info -->
<g id="node1" class="node"><title>_diagram_info</title>
<text text-anchor="start" x="250.5" y="-99.8" style="font-family:Times New Roman;font-size:13.00;">Controllers diagram</text>
<text text-anchor="start" x="250.5" y="-82.8" style="font-family:Times New Roman;font-size:13.00;">Date: Feb 02 2011 &#45; 17:08</text>
<text text-anchor="start" x="250.5" y="-65.8" style="font-family:Times New Roman;font-size:13.00;">Migration version: 20110126113319</text>
<text text-anchor="start" x="250.5" y="-48.8" style="font-family:Times New Roman;font-size:13.00;">Generated by RailRoady 1.0.0</text>
<text text-anchor="start" x="250.5" y="-31.8" style="font-family:Times New Roman;font-size:13.00;">http://railroady.prestonlee.com</text>
</g>
<!-- Admin::BaseController -->
<g id="node2" class="node"><title>Admin::BaseController</title>
<polyline style="fill:none;stroke:black;" points="387,-397 600,-397 "/>
<path style="fill:none;stroke:black;" d="M600,-397C606,-397 612,-403 612,-409"/>
<polyline style="fill:none;stroke:black;" points="612,-409 612,-535 "/>
<path style="fill:none;stroke:black;" d="M612,-535C612,-541 606,-547 600,-547"/>
<polyline style="fill:none;stroke:black;" points="600,-547 387,-547 "/>
<path style="fill:none;stroke:black;" d="M387,-547C381,-547 375,-541 375,-535"/>
<polyline style="fill:none;stroke:black;" points="375,-535 375,-409 "/>
<path style="fill:none;stroke:black;" d="M375,-409C375,-403 381,-397 387,-397"/>
<text text-anchor="middle" x="493" y="-529.9" style="font-family:Times New Roman;font-size:14.00;">Admin::BaseController</text>
<polyline style="fill:none;stroke:black;" points="375,-522 612,-522 "/>
<text text-anchor="start" x="382.5" y="-505.4" style="font-family:Times New Roman;font-size:14.00;">_one_time_conditions_valid_77?</text>
<text text-anchor="start" x="382.5" y="-488.4" style="font-family:Times New Roman;font-size:14.00;">_one_time_conditions_valid_79?</text>
<polyline style="fill:none;stroke:black;" points="375,-480 612,-480 "/>
<polyline style="fill:none;stroke:black;" points="375,-456 612,-456 "/>
<text text-anchor="start" x="382.5" y="-438.9" style="font-family:Times New Roman;font-size:14.00;">_layout</text>
<text text-anchor="start" x="382.5" y="-421.9" style="font-family:Times New Roman;font-size:14.00;">_run_process_action_callbacks</text>
<text text-anchor="start" x="382.5" y="-404.9" style="font-family:Times New Roman;font-size:14.00;">verify_admin</text>
</g>
<!-- Admin::UsersController -->
<g id="node3" class="node"><title>Admin::UsersController</title>
<polyline style="fill:none;stroke:black;" points="123,-132 336,-132 "/>
<path style="fill:none;stroke:black;" d="M336,-132C342,-132 348,-138 348,-144"/>
<polyline style="fill:none;stroke:black;" points="348,-144 348,-355 "/>
<path style="fill:none;stroke:black;" d="M348,-355C348,-361 342,-367 336,-367"/>
<polyline style="fill:none;stroke:black;" points="336,-367 123,-367 "/>
<path style="fill:none;stroke:black;" d="M123,-367C117,-367 111,-361 111,-355"/>
<polyline style="fill:none;stroke:black;" points="111,-355 111,-144 "/>
<path style="fill:none;stroke:black;" d="M111,-144C111,-138 117,-132 123,-132"/>
<text text-anchor="middle" x="229" y="-349.9" style="font-family:Times New Roman;font-size:14.00;">Admin::UsersController</text>
<polyline style="fill:none;stroke:black;" points="111,-342 348,-342 "/>
<text text-anchor="start" x="118.5" y="-325.4" style="font-family:Times New Roman;font-size:14.00;">_one_time_conditions_valid_81?</text>
<text text-anchor="start" x="118.5" y="-308.4" style="font-family:Times New Roman;font-size:14.00;">create</text>
<text text-anchor="start" x="118.5" y="-291.4" style="font-family:Times New Roman;font-size:14.00;">destroy</text>
<text text-anchor="start" x="118.5" y="-274.4" style="font-family:Times New Roman;font-size:14.00;">edit</text>
<text text-anchor="start" x="118.5" y="-257.4" style="font-family:Times New Roman;font-size:14.00;">find_user</text>
<text text-anchor="start" x="118.5" y="-240.4" style="font-family:Times New Roman;font-size:14.00;">index</text>
<text text-anchor="start" x="118.5" y="-223.4" style="font-family:Times New Roman;font-size:14.00;">new</text>
<text text-anchor="start" x="118.5" y="-206.4" style="font-family:Times New Roman;font-size:14.00;">update</text>
<polyline style="fill:none;stroke:black;" points="111,-198 348,-198 "/>
<polyline style="fill:none;stroke:black;" points="111,-174 348,-174 "/>
<text text-anchor="start" x="118.5" y="-157.4" style="font-family:Times New Roman;font-size:14.00;">_layout</text>
<text text-anchor="start" x="118.5" y="-140.4" style="font-family:Times New Roman;font-size:14.00;">_run_process_action_callbacks</text>
</g>
<!-- Admin::DashboardController -->
<g id="node4" class="node"><title>Admin::DashboardController</title>
<polyline style="fill:none;stroke:black;" points="13,-22 201,-22 "/>
<path style="fill:none;stroke:black;" d="M201,-22C207,-22 213,-28 213,-34"/>
<polyline style="fill:none;stroke:black;" points="213,-34 213,-109 "/>
<path style="fill:none;stroke:black;" d="M213,-109C213,-115 207,-121 201,-121"/>
<polyline style="fill:none;stroke:black;" points="201,-121 13,-121 "/>
<path style="fill:none;stroke:black;" d="M13,-121C7,-121 1,-115 1,-109"/>
<polyline style="fill:none;stroke:black;" points="1,-109 1,-34 "/>
<path style="fill:none;stroke:black;" d="M1,-34C1,-28 7,-22 13,-22"/>
<text text-anchor="middle" x="107" y="-103.9" style="font-family:Times New Roman;font-size:14.00;">Admin::DashboardController</text>
<polyline style="fill:none;stroke:black;" points="1,-96 213,-96 "/>
<text text-anchor="start" x="9" y="-78.9" style="font-family:Times New Roman;font-size:14.00;">index</text>
<polyline style="fill:none;stroke:black;" points="1,-71 213,-71 "/>
<polyline style="fill:none;stroke:black;" points="1,-47 213,-47 "/>
<text text-anchor="start" x="9" y="-29.9" style="font-family:Times New Roman;font-size:14.00;">_layout</text>
</g>
<!-- ApplicationController -->
<g id="node5" class="node"><title>ApplicationController</title>
<polyline style="fill:none;stroke:black;" points="123,-397 336,-397 "/>
<path style="fill:none;stroke:black;" d="M336,-397C342,-397 348,-403 348,-409"/>
<polyline style="fill:none;stroke:black;" points="348,-409 348,-535 "/>
<path style="fill:none;stroke:black;" d="M348,-535C348,-541 342,-547 336,-547"/>
<polyline style="fill:none;stroke:black;" points="336,-547 123,-547 "/>
<path style="fill:none;stroke:black;" d="M123,-547C117,-547 111,-541 111,-535"/>
<polyline style="fill:none;stroke:black;" points="111,-535 111,-409 "/>
<path style="fill:none;stroke:black;" d="M111,-409C111,-403 117,-397 123,-397"/>
<text text-anchor="middle" x="229" y="-529.9" style="font-family:Times New Roman;font-size:14.00;">ApplicationController</text>
<polyline style="fill:none;stroke:black;" points="111,-522 348,-522 "/>
<text text-anchor="start" x="118.5" y="-505.4" style="font-family:Times New Roman;font-size:14.00;">_one_time_conditions_valid_73?</text>
<text text-anchor="start" x="118.5" y="-488.4" style="font-family:Times New Roman;font-size:14.00;">_one_time_conditions_valid_75?</text>
<polyline style="fill:none;stroke:black;" points="111,-480 348,-480 "/>
<polyline style="fill:none;stroke:black;" points="111,-456 348,-456 "/>
<text text-anchor="start" x="118.5" y="-438.9" style="font-family:Times New Roman;font-size:14.00;">_layout</text>
<text text-anchor="start" x="118.5" y="-421.9" style="font-family:Times New Roman;font-size:14.00;">_run_process_action_callbacks</text>
<text text-anchor="start" x="118.5" y="-404.9" style="font-family:Times New Roman;font-size:14.00;">get_selected_site_tab</text>
</g>
<!-- HomeController -->
<g id="node6" class="node"><title>HomeController</title>
<polyline style="fill:none;stroke:black;" points="519,-0 620,-0 "/>
<path style="fill:none;stroke:black;" d="M620,-0C626,-0 632,-6 632,-12"/>
<polyline style="fill:none;stroke:black;" points="632,-12 632,-87 "/>
<path style="fill:none;stroke:black;" d="M632,-87C632,-93 626,-99 620,-99"/>
<polyline style="fill:none;stroke:black;" points="620,-99 519,-99 "/>
<path style="fill:none;stroke:black;" d="M519,-99C513,-99 507,-93 507,-87"/>
<polyline style="fill:none;stroke:black;" points="507,-87 507,-12 "/>
<path style="fill:none;stroke:black;" d="M507,-12C507,-6 513,-0 519,-0"/>
<text text-anchor="middle" x="569" y="-81.9" style="font-family:Times New Roman;font-size:14.00;">HomeController</text>
<polyline style="fill:none;stroke:black;" points="507,-74 632,-74 "/>
<text text-anchor="start" x="514.5" y="-56.9" style="font-family:Times New Roman;font-size:14.00;">index</text>
<polyline style="fill:none;stroke:black;" points="507,-49 632,-49 "/>
<polyline style="fill:none;stroke:black;" points="507,-25 632,-25 "/>
<text text-anchor="start" x="514.5" y="-7.9" style="font-family:Times New Roman;font-size:14.00;">_layout</text>
</g>
<!-- ComponentsController -->
<g id="node7" class="node"><title>ComponentsController</title>
<polyline style="fill:none;stroke:black;" points="387,-132 600,-132 "/>
<path style="fill:none;stroke:black;" d="M600,-132C606,-132 612,-138 612,-144"/>
<polyline style="fill:none;stroke:black;" points="612,-144 612,-355 "/>
<path style="fill:none;stroke:black;" d="M612,-355C612,-361 606,-367 600,-367"/>
<polyline style="fill:none;stroke:black;" points="600,-367 387,-367 "/>
<path style="fill:none;stroke:black;" d="M387,-367C381,-367 375,-361 375,-355"/>
<polyline style="fill:none;stroke:black;" points="375,-355 375,-144 "/>
<path style="fill:none;stroke:black;" d="M375,-144C375,-138 381,-132 387,-132"/>
<text text-anchor="middle" x="493" y="-349.9" style="font-family:Times New Roman;font-size:14.00;">ComponentsController</text>
<polyline style="fill:none;stroke:black;" points="375,-342 612,-342 "/>
<text text-anchor="start" x="382.5" y="-325.4" style="font-family:Times New Roman;font-size:14.00;">_one_time_conditions_valid_85?</text>
<text text-anchor="start" x="382.5" y="-308.4" style="font-family:Times New Roman;font-size:14.00;">create</text>
<text text-anchor="start" x="382.5" y="-291.4" style="font-family:Times New Roman;font-size:14.00;">destroy</text>
<text text-anchor="start" x="382.5" y="-274.4" style="font-family:Times New Roman;font-size:14.00;">edit</text>
<text text-anchor="start" x="382.5" y="-257.4" style="font-family:Times New Roman;font-size:14.00;">index</text>
<text text-anchor="start" x="382.5" y="-240.4" style="font-family:Times New Roman;font-size:14.00;">new</text>
<text text-anchor="start" x="382.5" y="-223.4" style="font-family:Times New Roman;font-size:14.00;">show</text>
<text text-anchor="start" x="382.5" y="-206.4" style="font-family:Times New Roman;font-size:14.00;">update</text>
<polyline style="fill:none;stroke:black;" points="375,-198 612,-198 "/>
<polyline style="fill:none;stroke:black;" points="375,-174 612,-174 "/>
<text text-anchor="start" x="382.5" y="-157.4" style="font-family:Times New Roman;font-size:14.00;">_layout</text>
<text text-anchor="start" x="382.5" y="-140.4" style="font-family:Times New Roman;font-size:14.00;">_run_process_action_callbacks</text>
</g>
</g>
</svg>
