<?xml version="1.0" encoding="UTF-8" standalone="no"?>
<!DOCTYPE svg PUBLIC "-//W3C//DTD SVG 1.0//EN"
 "http://www.w3.org/TR/2001/REC-SVG-20010904/DTD/svg10.dtd" [
 <!ATTLIST svg xmlns:xlink CDATA #FIXED "http://www.w3.org/1999/xlink">
]>
<!-- Generated by Graphviz version 2.20.2 (Tue Mar &#160;2 19:03:41 UTC 2010)
     For user: (jits) Jits,,, -->
<!-- Title: models_diagram Pages: 1 -->
<svg width="2630pt" height="484pt"
 viewBox="0.00 0.00 2630.00 484.00" xmlns="http://www.w3.org/2000/svg" xmlns:xlink="http://www.w3.org/1999/xlink">
<g id="graph0" class="graph" transform="scale(1 1) rotate(0) translate(4 480)">
<title>models_diagram</title>
<polygon style="fill:white;stroke:white;" points="-4,4 -4,-480 2626,-480 2626,4 -4,4"/>
<!-- _diagram_info -->
<g id="node1" class="node"><title>_diagram_info</title>
<text text-anchor="start" x="7.5" y="-328.8" style="font-family:Times New Roman;font-size:13.00;">Models diagram</text>
<text text-anchor="start" x="7.5" y="-311.8" style="font-family:Times New Roman;font-size:13.00;">Date: Jan 25 2011 &#45; 10:15</text>
<text text-anchor="start" x="7.5" y="-294.8" style="font-family:Times New Roman;font-size:13.00;">Migration version: 20110121152141</text>
<text text-anchor="start" x="7.5" y="-277.8" style="font-family:Times New Roman;font-size:13.00;">Generated by RailRoady 0.11.3</text>
<text text-anchor="start" x="7.5" y="-260.8" style="font-family:Times New Roman;font-size:13.00;">http://railroady.prestonlee.com</text>
</g>
<!-- Helper -->
<g id="node2" class="node"><title>Helper</title>
<polyline style="fill:none;stroke:black;" points="278,-239 419,-239 "/>
<path style="fill:none;stroke:black;" d="M419,-239C425,-239 431,-245 431,-251"/>
<polyline style="fill:none;stroke:black;" points="431,-251 431,-345 "/>
<path style="fill:none;stroke:black;" d="M431,-345C431,-351 425,-357 419,-357"/>
<polyline style="fill:none;stroke:black;" points="419,-357 278,-357 "/>
<path style="fill:none;stroke:black;" d="M278,-357C272,-357 266,-351 266,-345"/>
<polyline style="fill:none;stroke:black;" points="266,-345 266,-251 "/>
<path style="fill:none;stroke:black;" d="M266,-251C266,-245 272,-239 278,-239"/>
<text text-anchor="middle" x="348" y="-339.9" style="font-family:Times New Roman;font-size:14.00;">Helper</text>
<polyline style="fill:none;stroke:black;" points="266,-332 431,-332 "/>
<text text-anchor="start" x="273.5" y="-314.9" style="font-family:Times New Roman;font-size:14.00;">label :string</text>
<text text-anchor="start" x="273.5" y="-297.9" style="font-family:Times New Roman;font-size:14.00;">title :string</text>
<text text-anchor="start" x="273.5" y="-280.9" style="font-family:Times New Roman;font-size:14.00;">description :text</text>
<text text-anchor="start" x="273.5" y="-263.9" style="font-family:Times New Roman;font-size:14.00;">created_at :datetime</text>
<text text-anchor="start" x="273.5" y="-246.9" style="font-family:Times New Roman;font-size:14.00;">updated_at :datetime</text>
</g>
<!-- Port -->
<g id="node3" class="node"><title>Port</title>
<polyline style="fill:none;stroke:black;" points="460,-213 601,-213 "/>
<path style="fill:none;stroke:black;" d="M601,-213C607,-213 613,-219 613,-225"/>
<polyline style="fill:none;stroke:black;" points="613,-225 613,-370 "/>
<path style="fill:none;stroke:black;" d="M613,-370C613,-376 607,-382 601,-382"/>
<polyline style="fill:none;stroke:black;" points="601,-382 460,-382 "/>
<path style="fill:none;stroke:black;" d="M460,-382C454,-382 448,-376 448,-370"/>
<polyline style="fill:none;stroke:black;" points="448,-370 448,-225 "/>
<path style="fill:none;stroke:black;" d="M448,-225C448,-219 454,-213 460,-213"/>
<text text-anchor="middle" x="530" y="-364.9" style="font-family:Times New Roman;font-size:14.00;">Port</text>
<polyline style="fill:none;stroke:black;" points="448,-357 613,-357 "/>
<text text-anchor="start" x="455.5" y="-340.4" style="font-family:Times New Roman;font-size:14.00;">usage_type :integer</text>
<text text-anchor="start" x="455.5" y="-323.4" style="font-family:Times New Roman;font-size:14.00;">name :string</text>
<text text-anchor="start" x="455.5" y="-306.4" style="font-family:Times New Roman;font-size:14.00;">label :string</text>
<text text-anchor="start" x="455.5" y="-289.4" style="font-family:Times New Roman;font-size:14.00;">description :text</text>
<text text-anchor="start" x="455.5" y="-272.4" style="font-family:Times New Roman;font-size:14.00;">depth :integer</text>
<text text-anchor="start" x="455.5" y="-255.4" style="font-family:Times New Roman;font-size:14.00;">visible :boolean</text>
<text text-anchor="start" x="455.5" y="-238.4" style="font-family:Times New Roman;font-size:14.00;">created_at :datetime</text>
<text text-anchor="start" x="455.5" y="-221.4" style="font-family:Times New Roman;font-size:14.00;">updated_at :datetime</text>
</g>
<!-- ExampleValue -->
<g id="node4" class="node"><title>ExampleValue</title>
<polyline style="fill:none;stroke:black;" points="642,-247 783,-247 "/>
<path style="fill:none;stroke:black;" d="M783,-247C789,-247 795,-253 795,-259"/>
<polyline style="fill:none;stroke:black;" points="795,-259 795,-336 "/>
<path style="fill:none;stroke:black;" d="M795,-336C795,-342 789,-348 783,-348"/>
<polyline style="fill:none;stroke:black;" points="783,-348 642,-348 "/>
<path style="fill:none;stroke:black;" d="M642,-348C636,-348 630,-342 630,-336"/>
<polyline style="fill:none;stroke:black;" points="630,-336 630,-259 "/>
<path style="fill:none;stroke:black;" d="M630,-259C630,-253 636,-247 642,-247"/>
<text text-anchor="middle" x="712" y="-330.9" style="font-family:Times New Roman;font-size:14.00;">ExampleValue</text>
<polyline style="fill:none;stroke:black;" points="630,-323 795,-323 "/>
<text text-anchor="start" x="637.5" y="-306.4" style="font-family:Times New Roman;font-size:14.00;">data_type :string</text>
<text text-anchor="start" x="637.5" y="-289.4" style="font-family:Times New Roman;font-size:14.00;">value :text</text>
<text text-anchor="start" x="637.5" y="-272.4" style="font-family:Times New Roman;font-size:14.00;">created_at :datetime</text>
<text text-anchor="start" x="637.5" y="-255.4" style="font-family:Times New Roman;font-size:14.00;">updated_at :datetime</text>
</g>
<!-- TavernaActivity -->
<g id="node5" class="node"><title>TavernaActivity</title>
<polyline style="fill:none;stroke:black;" points="824,-239 965,-239 "/>
<path style="fill:none;stroke:black;" d="M965,-239C971,-239 977,-245 977,-251"/>
<polyline style="fill:none;stroke:black;" points="977,-251 977,-345 "/>
<path style="fill:none;stroke:black;" d="M977,-345C977,-351 971,-357 965,-357"/>
<polyline style="fill:none;stroke:black;" points="965,-357 824,-357 "/>
<path style="fill:none;stroke:black;" d="M824,-357C818,-357 812,-351 812,-345"/>
<polyline style="fill:none;stroke:black;" points="812,-345 812,-251 "/>
<path style="fill:none;stroke:black;" d="M812,-251C812,-245 818,-239 824,-239"/>
<text text-anchor="middle" x="894" y="-339.9" style="font-family:Times New Roman;font-size:14.00;">TavernaActivity</text>
<polyline style="fill:none;stroke:black;" points="812,-332 977,-332 "/>
<text text-anchor="start" x="819.5" y="-314.9" style="font-family:Times New Roman;font-size:14.00;">title :string</text>
<text text-anchor="start" x="819.5" y="-297.9" style="font-family:Times New Roman;font-size:14.00;">description :text</text>
<text text-anchor="start" x="819.5" y="-280.9" style="font-family:Times New Roman;font-size:14.00;">discovery_url :string</text>
<text text-anchor="start" x="819.5" y="-263.9" style="font-family:Times New Roman;font-size:14.00;">created_at :datetime</text>
<text text-anchor="start" x="819.5" y="-246.9" style="font-family:Times New Roman;font-size:14.00;">updated_at :datetime</text>
</g>
<!-- ConfigFieldMapping -->
<g id="node6" class="node"><title>ConfigFieldMapping</title>
<polyline style="fill:none;stroke:black;" points="1006,-239 1249,-239 "/>
<path style="fill:none;stroke:black;" d="M1249,-239C1255,-239 1261,-245 1261,-251"/>
<polyline style="fill:none;stroke:black;" points="1261,-251 1261,-345 "/>
<path style="fill:none;stroke:black;" d="M1261,-345C1261,-351 1255,-357 1249,-357"/>
<polyline style="fill:none;stroke:black;" points="1249,-357 1006,-357 "/>
<path style="fill:none;stroke:black;" d="M1006,-357C1000,-357 994,-351 994,-345"/>
<polyline style="fill:none;stroke:black;" points="994,-345 994,-251 "/>
<path style="fill:none;stroke:black;" d="M994,-251C994,-245 1000,-239 1006,-239"/>
<text text-anchor="middle" x="1127" y="-339.9" style="font-family:Times New Roman;font-size:14.00;">ConfigFieldMapping</text>
<polyline style="fill:none;stroke:black;" points="994,-332 1261,-332 "/>
<text text-anchor="start" x="1001.5" y="-314.9" style="font-family:Times New Roman;font-size:14.00;">to_activity_config_property :boolean</text>
<text text-anchor="start" x="1001.5" y="-297.9" style="font-family:Times New Roman;font-size:14.00;">to_component_port :boolean</text>
<text text-anchor="start" x="1001.5" y="-280.9" style="font-family:Times New Roman;font-size:14.00;">to_processor_port :boolean</text>
<text text-anchor="start" x="1001.5" y="-263.9" style="font-family:Times New Roman;font-size:14.00;">created_at :datetime</text>
<text text-anchor="start" x="1001.5" y="-246.9" style="font-family:Times New Roman;font-size:14.00;">updated_at :datetime</text>
</g>
<!-- ConfigFieldOption -->
<g id="node7" class="node"><title>ConfigFieldOption</title>
<polyline style="fill:none;stroke:black;" points="1290,-264 1431,-264 "/>
<path style="fill:none;stroke:black;" d="M1431,-264C1437,-264 1443,-270 1443,-276"/>
<polyline style="fill:none;stroke:black;" points="1443,-276 1443,-319 "/>
<path style="fill:none;stroke:black;" d="M1443,-319C1443,-325 1437,-331 1431,-331"/>
<polyline style="fill:none;stroke:black;" points="1431,-331 1290,-331 "/>
<path style="fill:none;stroke:black;" d="M1290,-331C1284,-331 1278,-325 1278,-319"/>
<polyline style="fill:none;stroke:black;" points="1278,-319 1278,-276 "/>
<path style="fill:none;stroke:black;" d="M1278,-276C1278,-270 1284,-264 1290,-264"/>
<text text-anchor="middle" x="1360" y="-313.9" style="font-family:Times New Roman;font-size:14.00;">ConfigFieldOption</text>
<polyline style="fill:none;stroke:black;" points="1278,-306 1443,-306 "/>
<text text-anchor="start" x="1285.5" y="-289.4" style="font-family:Times New Roman;font-size:14.00;">created_at :datetime</text>
<text text-anchor="start" x="1285.5" y="-272.4" style="font-family:Times New Roman;font-size:14.00;">updated_at :datetime</text>
</g>
<!-- Ability -->
<g id="node8" class="node"><title>Ability</title>
<polygon style="fill:none;stroke:black;" points="1460,-273 1460,-323 1520,-323 1520,-273 1460,-273"/>
<text text-anchor="middle" x="1490" y="-305.9" style="font-family:Times New Roman;font-size:14.00;">Ability</text>
<polyline style="fill:none;stroke:black;" points="1460,-298 1520,-298 "/>
<text text-anchor="middle" x="1490" y="-280.9" style="font-family:Times New Roman;font-size:14.00;"> </text>
</g>
<!-- PortMapping -->
<g id="node9" class="node"><title>PortMapping</title>
<polyline style="fill:none;stroke:black;" points="1550,-256 1728,-256 "/>
<path style="fill:none;stroke:black;" d="M1728,-256C1734,-256 1740,-262 1740,-268"/>
<polyline style="fill:none;stroke:black;" points="1740,-268 1740,-328 "/>
<path style="fill:none;stroke:black;" d="M1740,-328C1740,-334 1734,-340 1728,-340"/>
<polyline style="fill:none;stroke:black;" points="1728,-340 1550,-340 "/>
<path style="fill:none;stroke:black;" d="M1550,-340C1544,-340 1538,-334 1538,-328"/>
<polyline style="fill:none;stroke:black;" points="1538,-328 1538,-268 "/>
<path style="fill:none;stroke:black;" d="M1538,-268C1538,-262 1544,-256 1550,-256"/>
<text text-anchor="middle" x="1639" y="-322.9" style="font-family:Times New Roman;font-size:14.00;">PortMapping</text>
<polyline style="fill:none;stroke:black;" points="1538,-315 1740,-315 "/>
<text text-anchor="start" x="1546" y="-297.9" style="font-family:Times New Roman;font-size:14.00;">to_processor_port :boolean</text>
<text text-anchor="start" x="1546" y="-280.9" style="font-family:Times New Roman;font-size:14.00;">created_at :datetime</text>
<text text-anchor="start" x="1546" y="-263.9" style="font-family:Times New Roman;font-size:14.00;">updated_at :datetime</text>
</g>
<!-- ExternalResource -->
<g id="node10" class="node"><title>ExternalResource</title>
<polyline style="fill:none;stroke:black;" points="1770,-239 1911,-239 "/>
<path style="fill:none;stroke:black;" d="M1911,-239C1917,-239 1923,-245 1923,-251"/>
<polyline style="fill:none;stroke:black;" points="1923,-251 1923,-345 "/>
<path style="fill:none;stroke:black;" d="M1923,-345C1923,-351 1917,-357 1911,-357"/>
<polyline style="fill:none;stroke:black;" points="1911,-357 1770,-357 "/>
<path style="fill:none;stroke:black;" d="M1770,-357C1764,-357 1758,-351 1758,-345"/>
<polyline style="fill:none;stroke:black;" points="1758,-345 1758,-251 "/>
<path style="fill:none;stroke:black;" d="M1758,-251C1758,-245 1764,-239 1770,-239"/>
<text text-anchor="middle" x="1840" y="-339.9" style="font-family:Times New Roman;font-size:14.00;">ExternalResource</text>
<polyline style="fill:none;stroke:black;" points="1758,-332 1923,-332 "/>
<text text-anchor="start" x="1765.5" y="-314.9" style="font-family:Times New Roman;font-size:14.00;">title :string</text>
<text text-anchor="start" x="1765.5" y="-297.9" style="font-family:Times New Roman;font-size:14.00;">description :text</text>
<text text-anchor="start" x="1765.5" y="-280.9" style="font-family:Times New Roman;font-size:14.00;">discovery_url :string</text>
<text text-anchor="start" x="1765.5" y="-263.9" style="font-family:Times New Roman;font-size:14.00;">created_at :datetime</text>
<text text-anchor="start" x="1765.5" y="-246.9" style="font-family:Times New Roman;font-size:14.00;">updated_at :datetime</text>
</g>
<!-- ConfigField -->
<g id="node11" class="node"><title>ConfigField</title>
<polyline style="fill:none;stroke:black;" points="1952,-145 2167,-145 "/>
<path style="fill:none;stroke:black;" d="M2167,-145C2173,-145 2179,-151 2179,-157"/>
<polyline style="fill:none;stroke:black;" points="2179,-157 2179,-438 "/>
<path style="fill:none;stroke:black;" d="M2179,-438C2179,-444 2173,-450 2167,-450"/>
<polyline style="fill:none;stroke:black;" points="2167,-450 1952,-450 "/>
<path style="fill:none;stroke:black;" d="M1952,-450C1946,-450 1940,-444 1940,-438"/>
<polyline style="fill:none;stroke:black;" points="1940,-438 1940,-157 "/>
<path style="fill:none;stroke:black;" d="M1940,-157C1940,-151 1946,-145 1952,-145"/>
<text text-anchor="middle" x="2059" y="-432.9" style="font-family:Times New Roman;font-size:14.00;">ConfigField</text>
<polyline style="fill:none;stroke:black;" points="1940,-425 2179,-425 "/>
<text text-anchor="start" x="1947.5" y="-408.4" style="font-family:Times New Roman;font-size:14.00;">name :string</text>
<text text-anchor="start" x="1947.5" y="-391.4" style="font-family:Times New Roman;font-size:14.00;">label :string</text>
<text text-anchor="start" x="1947.5" y="-374.4" style="font-family:Times New Roman;font-size:14.00;">description :text</text>
<text text-anchor="start" x="1947.5" y="-357.4" style="font-family:Times New Roman;font-size:14.00;">field_type :integer</text>
<text text-anchor="start" x="1947.5" y="-340.4" style="font-family:Times New Roman;font-size:14.00;">data_type :string</text>
<text text-anchor="start" x="1947.5" y="-323.4" style="font-family:Times New Roman;font-size:14.00;">config_group :string</text>
<text text-anchor="start" x="1947.5" y="-306.4" style="font-family:Times New Roman;font-size:14.00;">required :boolean</text>
<text text-anchor="start" x="1947.5" y="-289.4" style="font-family:Times New Roman;font-size:14.00;">default_value :text</text>
<text text-anchor="start" x="1947.5" y="-272.4" style="font-family:Times New Roman;font-size:14.00;">fixed :boolean</text>
<text text-anchor="start" x="1947.5" y="-255.4" style="font-family:Times New Roman;font-size:14.00;">hidden :boolean</text>
<text text-anchor="start" x="1947.5" y="-238.4" style="font-family:Times New Roman;font-size:14.00;">multiple :boolean</text>
<text text-anchor="start" x="1947.5" y="-221.4" style="font-family:Times New Roman;font-size:14.00;">constrained_to_options :boolean</text>
<text text-anchor="start" x="1947.5" y="-204.4" style="font-family:Times New Roman;font-size:14.00;">additional_constraints :text</text>
<text text-anchor="start" x="1947.5" y="-187.4" style="font-family:Times New Roman;font-size:14.00;">make_input_port :boolean</text>
<text text-anchor="start" x="1947.5" y="-170.4" style="font-family:Times New Roman;font-size:14.00;">created_at :datetime</text>
<text text-anchor="start" x="1947.5" y="-153.4" style="font-family:Times New Roman;font-size:14.00;">updated_at :datetime</text>
</g>
<!-- Component -->
<g id="node12" class="node"><title>Component</title>
<polyline style="fill:none;stroke:black;" points="2208,-213 2354,-213 "/>
<path style="fill:none;stroke:black;" d="M2354,-213C2360,-213 2366,-219 2366,-225"/>
<polyline style="fill:none;stroke:black;" points="2366,-225 2366,-370 "/>
<path style="fill:none;stroke:black;" d="M2366,-370C2366,-376 2360,-382 2354,-382"/>
<polyline style="fill:none;stroke:black;" points="2354,-382 2208,-382 "/>
<path style="fill:none;stroke:black;" d="M2208,-382C2202,-382 2196,-376 2196,-370"/>
<polyline style="fill:none;stroke:black;" points="2196,-370 2196,-225 "/>
<path style="fill:none;stroke:black;" d="M2196,-225C2196,-219 2202,-213 2208,-213"/>
<text text-anchor="middle" x="2281" y="-364.9" style="font-family:Times New Roman;font-size:14.00;">Component</text>
<polyline style="fill:none;stroke:black;" points="2196,-357 2366,-357 "/>
<text text-anchor="start" x="2204" y="-340.4" style="font-family:Times New Roman;font-size:14.00;">version :string</text>
<text text-anchor="start" x="2204" y="-323.4" style="font-family:Times New Roman;font-size:14.00;">label :string</text>
<text text-anchor="start" x="2204" y="-306.4" style="font-family:Times New Roman;font-size:14.00;">title :string</text>
<text text-anchor="start" x="2204" y="-289.4" style="font-family:Times New Roman;font-size:14.00;">description :text</text>
<text text-anchor="start" x="2204" y="-272.4" style="font-family:Times New Roman;font-size:14.00;">publisher_type :string</text>
<text text-anchor="start" x="2204" y="-255.4" style="font-family:Times New Roman;font-size:14.00;">submitter_type :string</text>
<text text-anchor="start" x="2204" y="-238.4" style="font-family:Times New Roman;font-size:14.00;">created_at :datetime</text>
<text text-anchor="start" x="2204" y="-221.4" style="font-family:Times New Roman;font-size:14.00;">updated_at :datetime</text>
</g>
<!-- User -->
<g id="node13" class="node"><title>User</title>
<polyline style="fill:none;stroke:black;" points="2396,-120 2610,-120 "/>
<path style="fill:none;stroke:black;" d="M2610,-120C2616,-120 2622,-126 2622,-132"/>
<polyline style="fill:none;stroke:black;" points="2622,-132 2622,-464 "/>
<path style="fill:none;stroke:black;" d="M2622,-464C2622,-470 2616,-476 2610,-476"/>
<polyline style="fill:none;stroke:black;" points="2610,-476 2396,-476 "/>
<path style="fill:none;stroke:black;" d="M2396,-476C2390,-476 2384,-470 2384,-464"/>
<polyline style="fill:none;stroke:black;" points="2384,-464 2384,-132 "/>
<path style="fill:none;stroke:black;" d="M2384,-132C2384,-126 2390,-120 2396,-120"/>
<text text-anchor="middle" x="2503" y="-458.9" style="font-family:Times New Roman;font-size:14.00;">User</text>
<polyline style="fill:none;stroke:black;" points="2384,-451 2622,-451 "/>
<text text-anchor="start" x="2392" y="-433.9" style="font-family:Times New Roman;font-size:14.00;">email :string</text>
<text text-anchor="start" x="2392" y="-416.9" style="font-family:Times New Roman;font-size:14.00;">encrypted_password :string</text>
<text text-anchor="start" x="2392" y="-399.9" style="font-family:Times New Roman;font-size:14.00;">password_salt :string</text>
<text text-anchor="start" x="2392" y="-382.9" style="font-family:Times New Roman;font-size:14.00;">reset_password_token :string</text>
<text text-anchor="start" x="2392" y="-365.9" style="font-family:Times New Roman;font-size:14.00;">remember_token :string</text>
<text text-anchor="start" x="2392" y="-348.9" style="font-family:Times New Roman;font-size:14.00;">remember_created_at :datetime</text>
<text text-anchor="start" x="2392" y="-331.9" style="font-family:Times New Roman;font-size:14.00;">current_sign_in_at :datetime</text>
<text text-anchor="start" x="2392" y="-314.9" style="font-family:Times New Roman;font-size:14.00;">last_sign_in_at :datetime</text>
<text text-anchor="start" x="2392" y="-297.9" style="font-family:Times New Roman;font-size:14.00;">current_sign_in_ip :string</text>
<text text-anchor="start" x="2392" y="-280.9" style="font-family:Times New Roman;font-size:14.00;">last_sign_in_ip :string</text>
<text text-anchor="start" x="2392" y="-263.9" style="font-family:Times New Roman;font-size:14.00;">confirmation_token :string</text>
<text text-anchor="start" x="2392" y="-246.9" style="font-family:Times New Roman;font-size:14.00;">confirmed_at :datetime</text>
<text text-anchor="start" x="2392" y="-229.9" style="font-family:Times New Roman;font-size:14.00;">confirmation_sent_at :datetime</text>
<text text-anchor="start" x="2392" y="-212.9" style="font-family:Times New Roman;font-size:14.00;">authentication_token :string</text>
<text text-anchor="start" x="2392" y="-195.9" style="font-family:Times New Roman;font-size:14.00;">created_at :datetime</text>
<text text-anchor="start" x="2392" y="-178.9" style="font-family:Times New Roman;font-size:14.00;">updated_at :datetime</text>
<text text-anchor="start" x="2392" y="-161.9" style="font-family:Times New Roman;font-size:14.00;">name :string</text>
<text text-anchor="start" x="2392" y="-144.9" style="font-family:Times New Roman;font-size:14.00;">cached_slug :string</text>
<text text-anchor="start" x="2392" y="-127.9" style="font-family:Times New Roman;font-size:14.00;">deleted_at :datetime</text>
</g>
<!-- Role -->
<g id="node14" class="node"><title>Role</title>
<polyline style="fill:none;stroke:black;" points="2433,-0 2574,-0 "/>
<path style="fill:none;stroke:black;" d="M2574,-0C2580,-0 2586,-6 2586,-12"/>
<polyline style="fill:none;stroke:black;" points="2586,-12 2586,-72 "/>
<path style="fill:none;stroke:black;" d="M2586,-72C2586,-78 2580,-84 2574,-84"/>
<polyline style="fill:none;stroke:black;" points="2574,-84 2433,-84 "/>
<path style="fill:none;stroke:black;" d="M2433,-84C2427,-84 2421,-78 2421,-72"/>
<polyline style="fill:none;stroke:black;" points="2421,-72 2421,-12 "/>
<path style="fill:none;stroke:black;" d="M2421,-12C2421,-6 2427,-0 2433,-0"/>
<text text-anchor="middle" x="2503" y="-66.9" style="font-family:Times New Roman;font-size:14.00;">Role</text>
<polyline style="fill:none;stroke:black;" points="2421,-59 2586,-59 "/>
<text text-anchor="start" x="2428.5" y="-41.9" style="font-family:Times New Roman;font-size:14.00;">name :string</text>
<text text-anchor="start" x="2428.5" y="-24.9" style="font-family:Times New Roman;font-size:14.00;">created_at :datetime</text>
<text text-anchor="start" x="2428.5" y="-7.9" style="font-family:Times New Roman;font-size:14.00;">updated_at :datetime</text>
</g>
<!-- User&#45;&gt;Role -->
<g id="edge2" class="edge"><title>User&#45;&gt;Role</title>
<path style="fill:none;stroke:black;" d="M2503,-110C2503,-105 2503,-99 2503,-94"/>
<polygon style="fill:black;stroke:black;" points="2503,-110 2498.5,-120 2503,-115 2503,-120 2503,-120 2503,-120 2503,-115 2507.5,-120 2503,-110 2503,-110"/>
<polygon style="fill:black;stroke:black;" points="2503,-94 2507.5,-84 2503,-89 2503,-84 2503,-84 2503,-84 2503,-89 2498.5,-84 2503,-94 2503,-94"/>
</g>
</g>
</svg>
