<?xml version="1.0" encoding="UTF-8" standalone="no"?>
<!DOCTYPE svg PUBLIC "-//W3C//DTD SVG 1.0//EN"
 "http://www.w3.org/TR/2001/REC-SVG-20010904/DTD/svg10.dtd" [
 <!ATTLIST svg xmlns:xlink CDATA #FIXED "http://www.w3.org/1999/xlink">
]>
<!-- Generated by Graphviz version 2.20.2 (Tue Mar &#160;2 21:46:26 UTC 2010)
     For user: (jits) Jits,,, -->
<!-- Title: models_diagram Pages: 1 -->
<svg width="1365pt" height="282pt"
 viewBox="0.00 0.00 1365.00 282.00" xmlns="http://www.w3.org/2000/svg" xmlns:xlink="http://www.w3.org/1999/xlink">
<g id="graph0" class="graph" transform="scale(1 1) rotate(0) translate(4 278)">
<title>models_diagram</title>
<polygon style="fill:white;stroke:white;" points="-4,4 -4,-278 1361,-278 1361,4 -4,4"/>
<!-- _diagram_info -->
<g id="node1" class="node"><title>_diagram_info</title>
<text text-anchor="start" x="7.5" y="-257.8" style="font-family:Times New Roman;font-size:13.00;">Models diagram</text>
<text text-anchor="start" x="7.5" y="-240.8" style="font-family:Times New Roman;font-size:13.00;">Date: Feb 02 2011 &#45; 00:12</text>
<text text-anchor="start" x="7.5" y="-223.8" style="font-family:Times New Roman;font-size:13.00;">Migration version: 20110126113319</text>
<text text-anchor="start" x="7.5" y="-206.8" style="font-family:Times New Roman;font-size:13.00;">Generated by RailRoady 1.0.0</text>
<text text-anchor="start" x="7.5" y="-189.8" style="font-family:Times New Roman;font-size:13.00;">http://railroady.prestonlee.com</text>
</g>
<!-- ExternalResource -->
<g id="node2" class="node"><title>ExternalResource</title>
<ellipse style="fill:none;stroke:black;" cx="361" cy="-227" rx="95.1989" ry="18"/>
<text text-anchor="middle" x="361" y="-222.9" style="font-family:Times New Roman;font-size:14.00;">ExternalResource</text>
</g>
<!-- ConfigFieldMapping -->
<g id="node3" class="node"><title>ConfigFieldMapping</title>
<ellipse style="fill:none;stroke:black;" cx="450" cy="-18" rx="103.037" ry="18"/>
<text text-anchor="middle" x="450" y="-13.9" style="font-family:Times New Roman;font-size:14.00;">ConfigFieldMapping</text>
</g>
<!-- User -->
<g id="node4" class="node"><title>User</title>
<ellipse style="fill:none;stroke:black;" cx="746" cy="-227" rx="32.8565" ry="18"/>
<text text-anchor="middle" x="746" y="-222.9" style="font-family:Times New Roman;font-size:14.00;">User</text>
</g>
<!-- Role -->
<g id="node12" class="node"><title>Role</title>
<ellipse style="fill:none;stroke:black;" cx="746" cy="-108" rx="30.7734" ry="18"/>
<text text-anchor="middle" x="746" y="-103.9" style="font-family:Times New Roman;font-size:14.00;">Role</text>
</g>
<!-- User&#45;&gt;Role -->
<g id="edge2" class="edge"><title>User&#45;&gt;Role</title>
<path style="fill:none;stroke:black;" d="M746,-199C746,-180 746,-155 746,-136"/>
<polygon style="fill:black;stroke:black;" points="746,-199 741.5,-209 746,-204 746,-209 746,-209 746,-209 746,-204 750.5,-209 746,-199 746,-199"/>
<polygon style="fill:black;stroke:black;" points="746,-136 750.5,-126 746,-131 746,-126 746,-126 746,-126 746,-131 741.5,-126 746,-136 746,-136"/>
</g>
<!-- ConfigField -->
<g id="node5" class="node"><title>ConfigField</title>
<ellipse style="fill:none;stroke:black;" cx="465" cy="-108" rx="63.2343" ry="18"/>
<text text-anchor="middle" x="465" y="-103.9" style="font-family:Times New Roman;font-size:14.00;">ConfigField</text>
</g>
<!-- ConfigField&#45;&gt;ConfigFieldMapping -->
<g id="edge4" class="edge"><title>ConfigField&#45;&gt;ConfigFieldMapping</title>
<path style="fill:none;stroke:black;" d="M461,-82C459,-70 457,-56 455,-44"/>
<ellipse style="fill:none;stroke:black;" cx="461.504" cy="-86.0309" rx="4.00001" ry="4.00001"/>
<ellipse style="fill:black;stroke:black;" cx="453.97" cy="-39.8806" rx="4.00001" ry="4.00001"/>
<text text-anchor="middle" x="486" y="-58.9" style="font-family:Times New Roman;font-size:14.00;">mapping</text>
</g>
<!-- Component -->
<g id="node6" class="node"><title>Component</title>
<ellipse style="fill:none;stroke:black;" cx="540" cy="-227" rx="66.2071" ry="18"/>
<text text-anchor="middle" x="540" y="-222.9" style="font-family:Times New Roman;font-size:14.00;">Component</text>
</g>
<!-- Component&#45;&gt;ConfigField -->
<g id="edge10" class="edge"><title>Component&#45;&gt;ConfigField</title>
<path style="fill:none;stroke:black;" d="M525,-202C512,-183 495,-155 482,-134"/>
<ellipse style="fill:none;stroke:black;" cx="527.015" cy="-205.527" rx="4.00002" ry="4.00002"/>
<polygon style="fill:black;stroke:black;" points="482,-134 479.6,-123.3 479,-130 476,-126 476,-126 476,-126 479,-130 472.4,-128.7 482,-134 482,-134"/>
</g>
<!-- Port -->
<g id="node8" class="node"><title>Port</title>
<ellipse style="fill:none;stroke:black;" cx="642" cy="-108" rx="30.7734" ry="18"/>
<text text-anchor="middle" x="642" y="-103.9" style="font-family:Times New Roman;font-size:14.00;">Port</text>
</g>
<!-- Component&#45;&gt;Port -->
<g id="edge6" class="edge"><title>Component&#45;&gt;Port</title>
<path style="fill:none;stroke:black;" d="M533,-201C529,-183 529,-160 541,-144 548,-133 578,-124 603,-117"/>
<ellipse style="fill:none;stroke:black;" cx="534.03" cy="-205.119" rx="4.00001" ry="4.00001"/>
<polygon style="fill:black;stroke:black;" points="603.422,-116.874 614.293,-118.31 608.211,-115.437 613,-114 613,-114 613,-114 608.211,-115.437 611.707,-109.69 603.422,-116.874 603.422,-116.874"/>
<text text-anchor="middle" x="580" y="-148.9" style="font-family:Times New Roman;font-size:14.00;">input_ports</text>
</g>
<!-- Component&#45;&gt;Port -->
<g id="edge8" class="edge"><title>Component&#45;&gt;Port</title>
<path style="fill:none;stroke:black;" d="M573,-205C589,-194 607,-178 620,-162 626,-154 630,-144 633,-136"/>
<ellipse style="fill:none;stroke:black;" cx="569.255" cy="-207.675" rx="4.00002" ry="4.00002"/>
<polygon style="fill:black;stroke:black;" points="633.286,-135.285 641.178,-127.671 635.143,-130.642 637,-126 637,-126 637,-126 635.143,-130.642 632.822,-124.329 633.286,-135.285 633.286,-135.285"/>
<text text-anchor="middle" x="672" y="-148.9" style="font-family:Times New Roman;font-size:14.00;">output_ports</text>
</g>
<!-- ConfigFieldOption -->
<g id="node7" class="node"><title>ConfigFieldOption</title>
<ellipse style="fill:none;stroke:black;" cx="893" cy="-227" rx="95.8938" ry="18"/>
<text text-anchor="middle" x="893" y="-222.9" style="font-family:Times New Roman;font-size:14.00;">ConfigFieldOption</text>
</g>
<!-- PortMapping -->
<g id="node10" class="node"><title>PortMapping</title>
<ellipse style="fill:none;stroke:black;" cx="642" cy="-18" rx="70.878" ry="18"/>
<text text-anchor="middle" x="642" y="-13.9" style="font-family:Times New Roman;font-size:14.00;">PortMapping</text>
</g>
<!-- Port&#45;&gt;PortMapping -->
<g id="edge14" class="edge"><title>Port&#45;&gt;PortMapping</title>
<path style="fill:none;stroke:black;" d="M642,-82C642,-70 642,-56 642,-44"/>
<ellipse style="fill:none;stroke:black;" cx="642" cy="-86" rx="4" ry="4"/>
<ellipse style="fill:black;stroke:black;" cx="642" cy="-40" rx="4" ry="4"/>
<text text-anchor="middle" x="671" y="-58.9" style="font-family:Times New Roman;font-size:14.00;">mapping</text>
</g>
<!-- ExampleValue -->
<g id="node14" class="node"><title>ExampleValue</title>
<ellipse style="fill:none;stroke:black;" cx="809" cy="-18" rx="78.0216" ry="18"/>
<text text-anchor="middle" x="809" y="-13.9" style="font-family:Times New Roman;font-size:14.00;">ExampleValue</text>
</g>
<!-- Port&#45;&gt;ExampleValue -->
<g id="edge12" class="edge"><title>Port&#45;&gt;ExampleValue</title>
<path style="fill:none;stroke:black;" d="M672,-92C700,-78 740,-56 769,-40"/>
<ellipse style="fill:none;stroke:black;" cx="668.473" cy="-94.0154" rx="4.00002" ry="4.00002"/>
<polygon style="fill:black;stroke:black;" points="769.258,-39.8565 780.185,-38.9337 773.629,-37.4282 778,-35 778,-35 778,-35 773.629,-37.4282 775.815,-31.0663 769.258,-39.8565 769.258,-39.8565"/>
</g>
<!-- Helper -->
<g id="node9" class="node"><title>Helper</title>
<ellipse style="fill:none;stroke:black;" cx="1049" cy="-227" rx="41.8891" ry="18"/>
<text text-anchor="middle" x="1049" y="-222.9" style="font-family:Times New Roman;font-size:14.00;">Helper</text>
</g>
<!-- Ability -->
<g id="node11" class="node"><title>Ability</title>
<polygon style="fill:none;stroke:black;" points="1169,-245 1109,-245 1109,-209 1169,-209 1169,-245"/>
<text text-anchor="middle" x="1139" y="-222.9" style="font-family:Times New Roman;font-size:14.00;">Ability</text>
</g>
<!-- TavernaActivity -->
<g id="node13" class="node"><title>TavernaActivity</title>
<ellipse style="fill:none;stroke:black;" cx="1272" cy="-227" rx="84.9707" ry="18"/>
<text text-anchor="middle" x="1272" y="-222.9" style="font-family:Times New Roman;font-size:14.00;">TavernaActivity</text>
</g>
</g>
</svg>
