<?xml version="1.0" encoding="UTF-8" standalone="no"?>
<!DOCTYPE svg PUBLIC "-//W3C//DTD SVG 1.0//EN"
 "http://www.w3.org/TR/2001/REC-SVG-20010904/DTD/svg10.dtd" [
 <!ATTLIST svg xmlns:xlink CDATA #FIXED "http://www.w3.org/1999/xlink">
]>
<!-- Generated by Graphviz version 2.20.2 (Tue Mar &#160;2 19:03:41 UTC 2010)
     For user: (jits) Jits,,, -->
<!-- Title: models_diagram Pages: 1 -->
<svg width="1506pt" height="948pt"
 viewBox="0.00 0.00 1506.00 948.00" xmlns="http://www.w3.org/2000/svg" xmlns:xlink="http://www.w3.org/1999/xlink">
<g id="graph0" class="graph" transform="scale(1 1) rotate(0) translate(4 944)">
<title>models_diagram</title>
<polygon style="fill:white;stroke:white;" points="-4,4 -4,-944 1502,-944 1502,4 -4,4"/>
<!-- _diagram_info -->
<g id="node1" class="node"><title>_diagram_info</title>
<text text-anchor="start" x="7.5" y="-783.8" style="font-family:Times New Roman;font-size:13.00;">Models diagram</text>
<text text-anchor="start" x="7.5" y="-766.8" style="font-family:Times New Roman;font-size:13.00;">Date: Feb 02 2011 &#45; 17:07</text>
<text text-anchor="start" x="7.5" y="-749.8" style="font-family:Times New Roman;font-size:13.00;">Migration version: 20110126113319</text>
<text text-anchor="start" x="7.5" y="-732.8" style="font-family:Times New Roman;font-size:13.00;">Generated by RailRoady 1.0.0</text>
<text text-anchor="start" x="7.5" y="-715.8" style="font-family:Times New Roman;font-size:13.00;">http://railroady.prestonlee.com</text>
</g>
<!-- Helper -->
<g id="node2" class="node"><title>Helper</title>
<polyline style="fill:none;stroke:black;" points="278,-694 419,-694 "/>
<path style="fill:none;stroke:black;" d="M419,-694C425,-694 431,-700 431,-706"/>
<polyline style="fill:none;stroke:black;" points="431,-706 431,-800 "/>
<path style="fill:none;stroke:black;" d="M431,-800C431,-806 425,-812 419,-812"/>
<polyline style="fill:none;stroke:black;" points="419,-812 278,-812 "/>
<path style="fill:none;stroke:black;" d="M278,-812C272,-812 266,-806 266,-800"/>
<polyline style="fill:none;stroke:black;" points="266,-800 266,-706 "/>
<path style="fill:none;stroke:black;" d="M266,-706C266,-700 272,-694 278,-694"/>
<text text-anchor="middle" x="348" y="-794.9" style="font-family:Times New Roman;font-size:14.00;">Helper</text>
<polyline style="fill:none;stroke:black;" points="266,-787 431,-787 "/>
<text text-anchor="start" x="273.5" y="-769.9" style="font-family:Times New Roman;font-size:14.00;">label :string</text>
<text text-anchor="start" x="273.5" y="-752.9" style="font-family:Times New Roman;font-size:14.00;">title :string</text>
<text text-anchor="start" x="273.5" y="-735.9" style="font-family:Times New Roman;font-size:14.00;">description :text</text>
<text text-anchor="start" x="273.5" y="-718.9" style="font-family:Times New Roman;font-size:14.00;">created_at :datetime</text>
<text text-anchor="start" x="273.5" y="-701.9" style="font-family:Times New Roman;font-size:14.00;">updated_at :datetime</text>
</g>
<!-- Port -->
<g id="node3" class="node"><title>Port</title>
<polyline style="fill:none;stroke:black;" points="355,-274 507,-274 "/>
<path style="fill:none;stroke:black;" d="M507,-274C513,-274 519,-280 519,-286"/>
<polyline style="fill:none;stroke:black;" points="519,-286 519,-431 "/>
<path style="fill:none;stroke:black;" d="M519,-431C519,-437 513,-443 507,-443"/>
<polyline style="fill:none;stroke:black;" points="507,-443 355,-443 "/>
<path style="fill:none;stroke:black;" d="M355,-443C349,-443 343,-437 343,-431"/>
<polyline style="fill:none;stroke:black;" points="343,-431 343,-286 "/>
<path style="fill:none;stroke:black;" d="M343,-286C343,-280 349,-274 355,-274"/>
<text text-anchor="middle" x="431" y="-425.9" style="font-family:Times New Roman;font-size:14.00;">Port</text>
<polyline style="fill:none;stroke:black;" points="343,-418 519,-418 "/>
<text text-anchor="start" x="351" y="-401.4" style="font-family:Times New Roman;font-size:14.00;">usage_type_cd :integer</text>
<text text-anchor="start" x="351" y="-384.4" style="font-family:Times New Roman;font-size:14.00;">name :string</text>
<text text-anchor="start" x="351" y="-367.4" style="font-family:Times New Roman;font-size:14.00;">label :string</text>
<text text-anchor="start" x="351" y="-350.4" style="font-family:Times New Roman;font-size:14.00;">description :text</text>
<text text-anchor="start" x="351" y="-333.4" style="font-family:Times New Roman;font-size:14.00;">depth :integer</text>
<text text-anchor="start" x="351" y="-316.4" style="font-family:Times New Roman;font-size:14.00;">visible :boolean</text>
<text text-anchor="start" x="351" y="-299.4" style="font-family:Times New Roman;font-size:14.00;">created_at :datetime</text>
<text text-anchor="start" x="351" y="-282.4" style="font-family:Times New Roman;font-size:14.00;">updated_at :datetime</text>
</g>
<!-- ExampleValue -->
<g id="node4" class="node"><title>ExampleValue</title>
<polyline style="fill:none;stroke:black;" points="160,-25 301,-25 "/>
<path style="fill:none;stroke:black;" d="M301,-25C307,-25 313,-31 313,-37"/>
<polyline style="fill:none;stroke:black;" points="313,-37 313,-114 "/>
<path style="fill:none;stroke:black;" d="M313,-114C313,-120 307,-126 301,-126"/>
<polyline style="fill:none;stroke:black;" points="301,-126 160,-126 "/>
<path style="fill:none;stroke:black;" d="M160,-126C154,-126 148,-120 148,-114"/>
<polyline style="fill:none;stroke:black;" points="148,-114 148,-37 "/>
<path style="fill:none;stroke:black;" d="M148,-37C148,-31 154,-25 160,-25"/>
<text text-anchor="middle" x="230" y="-108.9" style="font-family:Times New Roman;font-size:14.00;">ExampleValue</text>
<polyline style="fill:none;stroke:black;" points="148,-101 313,-101 "/>
<text text-anchor="start" x="155.5" y="-84.4" style="font-family:Times New Roman;font-size:14.00;">data_type :string</text>
<text text-anchor="start" x="155.5" y="-67.4" style="font-family:Times New Roman;font-size:14.00;">value :text</text>
<text text-anchor="start" x="155.5" y="-50.4" style="font-family:Times New Roman;font-size:14.00;">created_at :datetime</text>
<text text-anchor="start" x="155.5" y="-33.4" style="font-family:Times New Roman;font-size:14.00;">updated_at :datetime</text>
</g>
<!-- Port&#45;&gt;ExampleValue -->
<g id="edge2" class="edge"><title>Port&#45;&gt;ExampleValue</title>
<path style="fill:none;stroke:black;" d="M365,-267C334,-223 298,-173 272,-134"/>
<ellipse style="fill:none;stroke:black;" cx="367.675" cy="-270.745" rx="4.00002" ry="4.00002"/>
<polygon style="fill:black;stroke:black;" points="272,-134 269.6,-123.3 269,-130 266,-126 266,-126 266,-126 269,-130 262.4,-128.7 272,-134 272,-134"/>
</g>
<!-- PortMapping -->
<g id="node9" class="node"><title>PortMapping</title>
<polyline style="fill:none;stroke:black;" points="342,-25 520,-25 "/>
<path style="fill:none;stroke:black;" d="M520,-25C526,-25 532,-31 532,-37"/>
<polyline style="fill:none;stroke:black;" points="532,-37 532,-114 "/>
<path style="fill:none;stroke:black;" d="M532,-114C532,-120 526,-126 520,-126"/>
<polyline style="fill:none;stroke:black;" points="520,-126 342,-126 "/>
<path style="fill:none;stroke:black;" d="M342,-126C336,-126 330,-120 330,-114"/>
<polyline style="fill:none;stroke:black;" points="330,-114 330,-37 "/>
<path style="fill:none;stroke:black;" d="M330,-37C330,-31 336,-25 342,-25"/>
<text text-anchor="middle" x="431" y="-108.9" style="font-family:Times New Roman;font-size:14.00;">PortMapping</text>
<polyline style="fill:none;stroke:black;" points="330,-101 532,-101 "/>
<text text-anchor="start" x="338" y="-84.4" style="font-family:Times New Roman;font-size:14.00;">to_processor_port :boolean</text>
<text text-anchor="start" x="338" y="-67.4" style="font-family:Times New Roman;font-size:14.00;">processor_port_ref :string</text>
<text text-anchor="start" x="338" y="-50.4" style="font-family:Times New Roman;font-size:14.00;">created_at :datetime</text>
<text text-anchor="start" x="338" y="-33.4" style="font-family:Times New Roman;font-size:14.00;">updated_at :datetime</text>
</g>
<!-- Port&#45;&gt;PortMapping -->
<g id="edge4" class="edge"><title>Port&#45;&gt;PortMapping</title>
<path style="fill:none;stroke:black;" d="M431,-266C431,-222 431,-173 431,-134"/>
<ellipse style="fill:none;stroke:black;" cx="431" cy="-270" rx="4" ry="4"/>
<ellipse style="fill:black;stroke:black;" cx="431" cy="-130" rx="4" ry="4"/>
<text text-anchor="middle" x="461" y="-174.9" style="font-family:Times New Roman;font-size:14.00;">mapping</text>
</g>
<!-- TavernaActivity -->
<g id="node5" class="node"><title>TavernaActivity</title>
<polyline style="fill:none;stroke:black;" points="648,-685 789,-685 "/>
<path style="fill:none;stroke:black;" d="M789,-685C795,-685 801,-691 801,-697"/>
<polyline style="fill:none;stroke:black;" points="801,-697 801,-808 "/>
<path style="fill:none;stroke:black;" d="M801,-808C801,-814 795,-820 789,-820"/>
<polyline style="fill:none;stroke:black;" points="789,-820 648,-820 "/>
<path style="fill:none;stroke:black;" d="M648,-820C642,-820 636,-814 636,-808"/>
<polyline style="fill:none;stroke:black;" points="636,-808 636,-697 "/>
<path style="fill:none;stroke:black;" d="M636,-697C636,-691 642,-685 648,-685"/>
<text text-anchor="middle" x="718" y="-802.9" style="font-family:Times New Roman;font-size:14.00;">TavernaActivity</text>
<polyline style="fill:none;stroke:black;" points="636,-795 801,-795 "/>
<text text-anchor="start" x="643.5" y="-778.4" style="font-family:Times New Roman;font-size:14.00;">type_ref :string</text>
<text text-anchor="start" x="643.5" y="-761.4" style="font-family:Times New Roman;font-size:14.00;">title :string</text>
<text text-anchor="start" x="643.5" y="-744.4" style="font-family:Times New Roman;font-size:14.00;">description :text</text>
<text text-anchor="start" x="643.5" y="-727.4" style="font-family:Times New Roman;font-size:14.00;">discovery_url :string</text>
<text text-anchor="start" x="643.5" y="-710.4" style="font-family:Times New Roman;font-size:14.00;">created_at :datetime</text>
<text text-anchor="start" x="643.5" y="-693.4" style="font-family:Times New Roman;font-size:14.00;">updated_at :datetime</text>
</g>
<!-- ConfigFieldMapping -->
<g id="node6" class="node"><title>ConfigFieldMapping</title>
<polyline style="fill:none;stroke:black;" points="562,-0 805,-0 "/>
<path style="fill:none;stroke:black;" d="M805,-0C811,-0 817,-6 817,-12"/>
<polyline style="fill:none;stroke:black;" points="817,-12 817,-140 "/>
<path style="fill:none;stroke:black;" d="M817,-140C817,-146 811,-152 805,-152"/>
<polyline style="fill:none;stroke:black;" points="805,-152 562,-152 "/>
<path style="fill:none;stroke:black;" d="M562,-152C556,-152 550,-146 550,-140"/>
<polyline style="fill:none;stroke:black;" points="550,-140 550,-12 "/>
<path style="fill:none;stroke:black;" d="M550,-12C550,-6 556,-0 562,-0"/>
<text text-anchor="middle" x="683" y="-134.9" style="font-family:Times New Roman;font-size:14.00;">ConfigFieldMapping</text>
<polyline style="fill:none;stroke:black;" points="550,-127 817,-127 "/>
<text text-anchor="start" x="557.5" y="-109.9" style="font-family:Times New Roman;font-size:14.00;">to_activity_config_property :boolean</text>
<text text-anchor="start" x="557.5" y="-92.9" style="font-family:Times New Roman;font-size:14.00;">activity_config_property_ref :string</text>
<text text-anchor="start" x="557.5" y="-75.9" style="font-family:Times New Roman;font-size:14.00;">to_component_port :boolean</text>
<text text-anchor="start" x="557.5" y="-58.9" style="font-family:Times New Roman;font-size:14.00;">to_processor_port :boolean</text>
<text text-anchor="start" x="557.5" y="-41.9" style="font-family:Times New Roman;font-size:14.00;">processor_port_ref :string</text>
<text text-anchor="start" x="557.5" y="-24.9" style="font-family:Times New Roman;font-size:14.00;">created_at :datetime</text>
<text text-anchor="start" x="557.5" y="-7.9" style="font-family:Times New Roman;font-size:14.00;">updated_at :datetime</text>
</g>
<!-- ConfigFieldOption -->
<g id="node7" class="node"><title>ConfigFieldOption</title>
<polyline style="fill:none;stroke:black;" points="830,-702 971,-702 "/>
<path style="fill:none;stroke:black;" d="M971,-702C977,-702 983,-708 983,-714"/>
<polyline style="fill:none;stroke:black;" points="983,-714 983,-791 "/>
<path style="fill:none;stroke:black;" d="M983,-791C983,-797 977,-803 971,-803"/>
<polyline style="fill:none;stroke:black;" points="971,-803 830,-803 "/>
<path style="fill:none;stroke:black;" d="M830,-803C824,-803 818,-797 818,-791"/>
<polyline style="fill:none;stroke:black;" points="818,-791 818,-714 "/>
<path style="fill:none;stroke:black;" d="M818,-714C818,-708 824,-702 830,-702"/>
<text text-anchor="middle" x="900" y="-785.9" style="font-family:Times New Roman;font-size:14.00;">ConfigFieldOption</text>
<polyline style="fill:none;stroke:black;" points="818,-778 983,-778 "/>
<text text-anchor="start" x="825.5" y="-761.4" style="font-family:Times New Roman;font-size:14.00;">label :string</text>
<text text-anchor="start" x="825.5" y="-744.4" style="font-family:Times New Roman;font-size:14.00;">value :string</text>
<text text-anchor="start" x="825.5" y="-727.4" style="font-family:Times New Roman;font-size:14.00;">created_at :datetime</text>
<text text-anchor="start" x="825.5" y="-710.4" style="font-family:Times New Roman;font-size:14.00;">updated_at :datetime</text>
</g>
<!-- Ability -->
<g id="node8" class="node"><title>Ability</title>
<polygon style="fill:none;stroke:black;" points="1000,-728 1000,-778 1060,-778 1060,-728 1000,-728"/>
<text text-anchor="middle" x="1030" y="-760.9" style="font-family:Times New Roman;font-size:14.00;">Ability</text>
<polyline style="fill:none;stroke:black;" points="1000,-753 1060,-753 "/>
<text text-anchor="middle" x="1030" y="-735.9" style="font-family:Times New Roman;font-size:14.00;"> </text>
</g>
<!-- ExternalResource -->
<g id="node10" class="node"><title>ExternalResource</title>
<polyline style="fill:none;stroke:black;" points="1090,-677 1231,-677 "/>
<path style="fill:none;stroke:black;" d="M1231,-677C1237,-677 1243,-683 1243,-689"/>
<polyline style="fill:none;stroke:black;" points="1243,-689 1243,-817 "/>
<path style="fill:none;stroke:black;" d="M1243,-817C1243,-823 1237,-829 1231,-829"/>
<polyline style="fill:none;stroke:black;" points="1231,-829 1090,-829 "/>
<path style="fill:none;stroke:black;" d="M1090,-829C1084,-829 1078,-823 1078,-817"/>
<polyline style="fill:none;stroke:black;" points="1078,-817 1078,-689 "/>
<path style="fill:none;stroke:black;" d="M1078,-689C1078,-683 1084,-677 1090,-677"/>
<text text-anchor="middle" x="1160" y="-811.9" style="font-family:Times New Roman;font-size:14.00;">ExternalResource</text>
<polyline style="fill:none;stroke:black;" points="1078,-804 1243,-804 "/>
<text text-anchor="start" x="1085.5" y="-786.9" style="font-family:Times New Roman;font-size:14.00;">resource_ref :string</text>
<text text-anchor="start" x="1085.5" y="-769.9" style="font-family:Times New Roman;font-size:14.00;">type_ref :string</text>
<text text-anchor="start" x="1085.5" y="-752.9" style="font-family:Times New Roman;font-size:14.00;">title :string</text>
<text text-anchor="start" x="1085.5" y="-735.9" style="font-family:Times New Roman;font-size:14.00;">description :text</text>
<text text-anchor="start" x="1085.5" y="-718.9" style="font-family:Times New Roman;font-size:14.00;">discovery_url :string</text>
<text text-anchor="start" x="1085.5" y="-701.9" style="font-family:Times New Roman;font-size:14.00;">created_at :datetime</text>
<text text-anchor="start" x="1085.5" y="-684.9" style="font-family:Times New Roman;font-size:14.00;">updated_at :datetime</text>
</g>
<!-- ConfigField -->
<g id="node11" class="node"><title>ConfigField</title>
<polyline style="fill:none;stroke:black;" points="565,-206 780,-206 "/>
<path style="fill:none;stroke:black;" d="M780,-206C786,-206 792,-212 792,-218"/>
<polyline style="fill:none;stroke:black;" points="792,-218 792,-499 "/>
<path style="fill:none;stroke:black;" d="M792,-499C792,-505 786,-511 780,-511"/>
<polyline style="fill:none;stroke:black;" points="780,-511 565,-511 "/>
<path style="fill:none;stroke:black;" d="M565,-511C559,-511 553,-505 553,-499"/>
<polyline style="fill:none;stroke:black;" points="553,-499 553,-218 "/>
<path style="fill:none;stroke:black;" d="M553,-218C553,-212 559,-206 565,-206"/>
<text text-anchor="middle" x="672" y="-493.9" style="font-family:Times New Roman;font-size:14.00;">ConfigField</text>
<polyline style="fill:none;stroke:black;" points="553,-486 792,-486 "/>
<text text-anchor="start" x="560.5" y="-469.4" style="font-family:Times New Roman;font-size:14.00;">name :string</text>
<text text-anchor="start" x="560.5" y="-452.4" style="font-family:Times New Roman;font-size:14.00;">label :string</text>
<text text-anchor="start" x="560.5" y="-435.4" style="font-family:Times New Roman;font-size:14.00;">description :text</text>
<text text-anchor="start" x="560.5" y="-418.4" style="font-family:Times New Roman;font-size:14.00;">field_type_cd :integer</text>
<text text-anchor="start" x="560.5" y="-401.4" style="font-family:Times New Roman;font-size:14.00;">data_type :string</text>
<text text-anchor="start" x="560.5" y="-384.4" style="font-family:Times New Roman;font-size:14.00;">config_group :string</text>
<text text-anchor="start" x="560.5" y="-367.4" style="font-family:Times New Roman;font-size:14.00;">required :boolean</text>
<text text-anchor="start" x="560.5" y="-350.4" style="font-family:Times New Roman;font-size:14.00;">default_value :text</text>
<text text-anchor="start" x="560.5" y="-333.4" style="font-family:Times New Roman;font-size:14.00;">fixed :boolean</text>
<text text-anchor="start" x="560.5" y="-316.4" style="font-family:Times New Roman;font-size:14.00;">hidden :boolean</text>
<text text-anchor="start" x="560.5" y="-299.4" style="font-family:Times New Roman;font-size:14.00;">multiple :boolean</text>
<text text-anchor="start" x="560.5" y="-282.4" style="font-family:Times New Roman;font-size:14.00;">constrained_to_options :boolean</text>
<text text-anchor="start" x="560.5" y="-265.4" style="font-family:Times New Roman;font-size:14.00;">additional_constraints :text</text>
<text text-anchor="start" x="560.5" y="-248.4" style="font-family:Times New Roman;font-size:14.00;">make_input_port :boolean</text>
<text text-anchor="start" x="560.5" y="-231.4" style="font-family:Times New Roman;font-size:14.00;">created_at :datetime</text>
<text text-anchor="start" x="560.5" y="-214.4" style="font-family:Times New Roman;font-size:14.00;">updated_at :datetime</text>
</g>
<!-- ConfigField&#45;&gt;ConfigFieldMapping -->
<g id="edge6" class="edge"><title>ConfigField&#45;&gt;ConfigFieldMapping</title>
<path style="fill:none;stroke:black;" d="M678,-198C679,-185 680,-172 680,-160"/>
<ellipse style="fill:none;stroke:black;" cx="678" cy="-202" rx="4" ry="4"/>
<ellipse style="fill:black;stroke:black;" cx="680" cy="-156" rx="4" ry="4"/>
<text text-anchor="middle" x="710" y="-174.9" style="font-family:Times New Roman;font-size:14.00;">mapping</text>
</g>
<!-- Component -->
<g id="node12" class="node"><title>Component</title>
<polyline style="fill:none;stroke:black;" points="460,-677 606,-677 "/>
<path style="fill:none;stroke:black;" d="M606,-677C612,-677 618,-683 618,-689"/>
<polyline style="fill:none;stroke:black;" points="618,-689 618,-817 "/>
<path style="fill:none;stroke:black;" d="M618,-817C618,-823 612,-829 606,-829"/>
<polyline style="fill:none;stroke:black;" points="606,-829 460,-829 "/>
<path style="fill:none;stroke:black;" d="M460,-829C454,-829 448,-823 448,-817"/>
<polyline style="fill:none;stroke:black;" points="448,-817 448,-689 "/>
<path style="fill:none;stroke:black;" d="M448,-689C448,-683 454,-677 460,-677"/>
<text text-anchor="middle" x="533" y="-811.9" style="font-family:Times New Roman;font-size:14.00;">Component</text>
<polyline style="fill:none;stroke:black;" points="448,-804 618,-804 "/>
<text text-anchor="start" x="456" y="-786.9" style="font-family:Times New Roman;font-size:14.00;">version :string</text>
<text text-anchor="start" x="456" y="-769.9" style="font-family:Times New Roman;font-size:14.00;">label :string</text>
<text text-anchor="start" x="456" y="-752.9" style="font-family:Times New Roman;font-size:14.00;">title :string</text>
<text text-anchor="start" x="456" y="-735.9" style="font-family:Times New Roman;font-size:14.00;">submitter_type :string</text>
<text text-anchor="start" x="456" y="-718.9" style="font-family:Times New Roman;font-size:14.00;">description :text</text>
<text text-anchor="start" x="456" y="-701.9" style="font-family:Times New Roman;font-size:14.00;">created_at :datetime</text>
<text text-anchor="start" x="456" y="-684.9" style="font-family:Times New Roman;font-size:14.00;">updated_at :datetime</text>
</g>
<!-- Component&#45;&gt;Port -->
<g id="edge8" class="edge"><title>Component&#45;&gt;Port</title>
<path style="fill:none;stroke:black;" d="M491,-670C464,-615 434,-555 432,-548 425,-517 423,-484 424,-453"/>
<ellipse style="fill:none;stroke:black;" cx="493.015" cy="-673.527" rx="4.00002" ry="4.00002"/>
<polygon style="fill:black;stroke:black;" points="424,-453 428.5,-443 424,-448 424,-443 424,-443 424,-443 424,-448 419.5,-443 424,-453 424,-453"/>
<text text-anchor="middle" x="475" y="-534.9" style="font-family:Times New Roman;font-size:14.00;">input_ports</text>
</g>
<!-- Component&#45;&gt;Port -->
<g id="edge10" class="edge"><title>Component&#45;&gt;Port</title>
<path style="fill:none;stroke:black;" d="M532,-669C529,-626 523,-575 511,-530 504,-504 493,-477 481,-452"/>
<ellipse style="fill:none;stroke:black;" cx="532" cy="-673" rx="4" ry="4"/>
<polygon style="fill:black;stroke:black;" points="481.061,-452.138 481.112,-441.172 479.031,-447.569 477,-443 477,-443 477,-443 479.031,-447.569 472.888,-444.828 481.061,-452.138 481.061,-452.138"/>
<text text-anchor="middle" x="562" y="-534.9" style="font-family:Times New Roman;font-size:14.00;">output_ports</text>
</g>
<!-- Component&#45;&gt;ConfigField -->
<g id="edge12" class="edge"><title>Component&#45;&gt;ConfigField</title>
<path style="fill:none;stroke:black;" d="M566,-669C579,-632 596,-587 610,-548 613,-539 617,-530 620,-521"/>
<ellipse style="fill:none;stroke:black;" cx="564.405" cy="-673.255" rx="4.00001" ry="4.00001"/>
<polygon style="fill:black;stroke:black;" points="620.126,-520.578 627.31,-512.293 621.563,-515.789 623,-511 623,-511 623,-511 621.563,-515.789 618.69,-509.707 620.126,-520.578 620.126,-520.578"/>
</g>
<!-- User -->
<g id="node13" class="node"><title>User</title>
<polyline style="fill:none;stroke:black;" points="1272,-566 1486,-566 "/>
<path style="fill:none;stroke:black;" d="M1486,-566C1492,-566 1498,-572 1498,-578"/>
<polyline style="fill:none;stroke:black;" points="1498,-578 1498,-927 "/>
<path style="fill:none;stroke:black;" d="M1498,-927C1498,-933 1492,-939 1486,-939"/>
<polyline style="fill:none;stroke:black;" points="1486,-939 1272,-939 "/>
<path style="fill:none;stroke:black;" d="M1272,-939C1266,-939 1260,-933 1260,-927"/>
<polyline style="fill:none;stroke:black;" points="1260,-927 1260,-578 "/>
<path style="fill:none;stroke:black;" d="M1260,-578C1260,-572 1266,-566 1272,-566"/>
<text text-anchor="middle" x="1379" y="-921.9" style="font-family:Times New Roman;font-size:14.00;">User</text>
<polyline style="fill:none;stroke:black;" points="1260,-914 1498,-914 "/>
<text text-anchor="start" x="1268" y="-897.4" style="font-family:Times New Roman;font-size:14.00;">email :string</text>
<text text-anchor="start" x="1268" y="-880.4" style="font-family:Times New Roman;font-size:14.00;">encrypted_password :string</text>
<text text-anchor="start" x="1268" y="-863.4" style="font-family:Times New Roman;font-size:14.00;">password_salt :string</text>
<text text-anchor="start" x="1268" y="-846.4" style="font-family:Times New Roman;font-size:14.00;">reset_password_token :string</text>
<text text-anchor="start" x="1268" y="-829.4" style="font-family:Times New Roman;font-size:14.00;">remember_token :string</text>
<text text-anchor="start" x="1268" y="-812.4" style="font-family:Times New Roman;font-size:14.00;">remember_created_at :datetime</text>
<text text-anchor="start" x="1268" y="-795.4" style="font-family:Times New Roman;font-size:14.00;">current_sign_in_at :datetime</text>
<text text-anchor="start" x="1268" y="-778.4" style="font-family:Times New Roman;font-size:14.00;">last_sign_in_at :datetime</text>
<text text-anchor="start" x="1268" y="-761.4" style="font-family:Times New Roman;font-size:14.00;">current_sign_in_ip :string</text>
<text text-anchor="start" x="1268" y="-744.4" style="font-family:Times New Roman;font-size:14.00;">last_sign_in_ip :string</text>
<text text-anchor="start" x="1268" y="-727.4" style="font-family:Times New Roman;font-size:14.00;">confirmation_token :string</text>
<text text-anchor="start" x="1268" y="-710.4" style="font-family:Times New Roman;font-size:14.00;">confirmed_at :datetime</text>
<text text-anchor="start" x="1268" y="-693.4" style="font-family:Times New Roman;font-size:14.00;">confirmation_sent_at :datetime</text>
<text text-anchor="start" x="1268" y="-676.4" style="font-family:Times New Roman;font-size:14.00;">authentication_token :string</text>
<text text-anchor="start" x="1268" y="-659.4" style="font-family:Times New Roman;font-size:14.00;">created_at :datetime</text>
<text text-anchor="start" x="1268" y="-642.4" style="font-family:Times New Roman;font-size:14.00;">updated_at :datetime</text>
<text text-anchor="start" x="1268" y="-625.4" style="font-family:Times New Roman;font-size:14.00;">name :string</text>
<text text-anchor="start" x="1268" y="-608.4" style="font-family:Times New Roman;font-size:14.00;">cached_slug :string</text>
<text text-anchor="start" x="1268" y="-591.4" style="font-family:Times New Roman;font-size:14.00;">deleted_at :datetime</text>
<text text-anchor="start" x="1268" y="-574.4" style="font-family:Times New Roman;font-size:14.00;">homepage :string</text>
</g>
<!-- Role -->
<g id="node14" class="node"><title>Role</title>
<polyline style="fill:none;stroke:black;" points="1309,-317 1450,-317 "/>
<path style="fill:none;stroke:black;" d="M1450,-317C1456,-317 1462,-323 1462,-329"/>
<polyline style="fill:none;stroke:black;" points="1462,-329 1462,-389 "/>
<path style="fill:none;stroke:black;" d="M1462,-389C1462,-395 1456,-401 1450,-401"/>
<polyline style="fill:none;stroke:black;" points="1450,-401 1309,-401 "/>
<path style="fill:none;stroke:black;" d="M1309,-401C1303,-401 1297,-395 1297,-389"/>
<polyline style="fill:none;stroke:black;" points="1297,-389 1297,-329 "/>
<path style="fill:none;stroke:black;" d="M1297,-329C1297,-323 1303,-317 1309,-317"/>
<text text-anchor="middle" x="1379" y="-383.9" style="font-family:Times New Roman;font-size:14.00;">Role</text>
<polyline style="fill:none;stroke:black;" points="1297,-376 1462,-376 "/>
<text text-anchor="start" x="1304.5" y="-358.9" style="font-family:Times New Roman;font-size:14.00;">name :string</text>
<text text-anchor="start" x="1304.5" y="-341.9" style="font-family:Times New Roman;font-size:14.00;">created_at :datetime</text>
<text text-anchor="start" x="1304.5" y="-324.9" style="font-family:Times New Roman;font-size:14.00;">updated_at :datetime</text>
</g>
<!-- User&#45;&gt;Role -->
<g id="edge14" class="edge"><title>User&#45;&gt;Role</title>
<path style="fill:none;stroke:black;" d="M1379,-556C1379,-502 1379,-449 1379,-411"/>
<polygon style="fill:black;stroke:black;" points="1379,-556 1374.5,-566 1379,-561 1379,-566 1379,-566 1379,-566 1379,-561 1383.5,-566 1379,-556 1379,-556"/>
<polygon style="fill:black;stroke:black;" points="1379,-411 1383.5,-401 1379,-406 1379,-401 1379,-401 1379,-401 1379,-406 1374.5,-401 1379,-411 1379,-411"/>
</g>
</g>
</svg>
