<?xml version="1.0" encoding="UTF-8" standalone="no"?>
<!DOCTYPE svg PUBLIC "-//W3C//DTD SVG 1.0//EN"
 "http://www.w3.org/TR/2001/REC-SVG-20010904/DTD/svg10.dtd" [
 <!ATTLIST svg xmlns:xlink CDATA #FIXED "http://www.w3.org/1999/xlink">
]>
<!-- Generated by Graphviz version 2.20.2 (Tue Mar &#160;2 21:46:26 UTC 2010)
     For user: (jits) Jits,,, -->
<!-- Title: models_diagram Pages: 1 -->
<svg width="1574pt" height="948pt"
 viewBox="0.00 0.00 1574.00 948.00" xmlns="http://www.w3.org/2000/svg" xmlns:xlink="http://www.w3.org/1999/xlink">
<g id="graph0" class="graph" transform="scale(1 1) rotate(0) translate(4 944)">
<title>models_diagram</title>
<polygon style="fill:white;stroke:white;" points="-4,4 -4,-944 1570,-944 1570,4 -4,4"/>
<!-- _diagram_info -->
<g id="node1" class="node"><title>_diagram_info</title>
<text text-anchor="start" x="7.5" y="-783.8" style="font-family:Times New Roman;font-size:13.00;">Models diagram</text>
<text text-anchor="start" x="7.5" y="-766.8" style="font-family:Times New Roman;font-size:13.00;">Date: Feb 01 2011 &#45; 14:47</text>
<text text-anchor="start" x="7.5" y="-749.8" style="font-family:Times New Roman;font-size:13.00;">Migration version: 20110126113319</text>
<text text-anchor="start" x="7.5" y="-732.8" style="font-family:Times New Roman;font-size:13.00;">Generated by RailRoady 1.0.0</text>
<text text-anchor="start" x="7.5" y="-715.8" style="font-family:Times New Roman;font-size:13.00;">http://railroady.prestonlee.com</text>
</g>
<!-- ExternalResource -->
<g id="node2" class="node"><title>ExternalResource</title>
<polyline style="fill:none;stroke:black;" points="278,-685 419,-685 "/>
<path style="fill:none;stroke:black;" d="M419,-685C425,-685 431,-691 431,-697"/>
<polyline style="fill:none;stroke:black;" points="431,-697 431,-808 "/>
<path style="fill:none;stroke:black;" d="M431,-808C431,-814 425,-820 419,-820"/>
<polyline style="fill:none;stroke:black;" points="419,-820 278,-820 "/>
<path style="fill:none;stroke:black;" d="M278,-820C272,-820 266,-814 266,-808"/>
<polyline style="fill:none;stroke:black;" points="266,-808 266,-697 "/>
<path style="fill:none;stroke:black;" d="M266,-697C266,-691 272,-685 278,-685"/>
<text text-anchor="middle" x="348" y="-802.9" style="font-family:Times New Roman;font-size:14.00;">ExternalResource</text>
<polyline style="fill:none;stroke:black;" points="266,-795 431,-795 "/>
<text text-anchor="start" x="273.5" y="-778.4" style="font-family:Times New Roman;font-size:14.00;">resource :string</text>
<text text-anchor="start" x="273.5" y="-761.4" style="font-family:Times New Roman;font-size:14.00;">title :string</text>
<text text-anchor="start" x="273.5" y="-744.4" style="font-family:Times New Roman;font-size:14.00;">description :text</text>
<text text-anchor="start" x="273.5" y="-727.4" style="font-family:Times New Roman;font-size:14.00;">discovery_url :string</text>
<text text-anchor="start" x="273.5" y="-710.4" style="font-family:Times New Roman;font-size:14.00;">created_at :datetime</text>
<text text-anchor="start" x="273.5" y="-693.4" style="font-family:Times New Roman;font-size:14.00;">updated_at :datetime</text>
</g>
<!-- ConfigFieldMapping -->
<g id="node3" class="node"><title>ConfigFieldMapping</title>
<polyline style="fill:none;stroke:black;" points="262,-0 505,-0 "/>
<path style="fill:none;stroke:black;" d="M505,-0C511,-0 517,-6 517,-12"/>
<polyline style="fill:none;stroke:black;" points="517,-12 517,-140 "/>
<path style="fill:none;stroke:black;" d="M517,-140C517,-146 511,-152 505,-152"/>
<polyline style="fill:none;stroke:black;" points="505,-152 262,-152 "/>
<path style="fill:none;stroke:black;" d="M262,-152C256,-152 250,-146 250,-140"/>
<polyline style="fill:none;stroke:black;" points="250,-140 250,-12 "/>
<path style="fill:none;stroke:black;" d="M250,-12C250,-6 256,-0 262,-0"/>
<text text-anchor="middle" x="383" y="-134.9" style="font-family:Times New Roman;font-size:14.00;">ConfigFieldMapping</text>
<polyline style="fill:none;stroke:black;" points="250,-127 517,-127 "/>
<text text-anchor="start" x="257.5" y="-109.9" style="font-family:Times New Roman;font-size:14.00;">to_activity_config_property :boolean</text>
<text text-anchor="start" x="257.5" y="-92.9" style="font-family:Times New Roman;font-size:14.00;">activity_config_property_ref :string</text>
<text text-anchor="start" x="257.5" y="-75.9" style="font-family:Times New Roman;font-size:14.00;">to_component_port :boolean</text>
<text text-anchor="start" x="257.5" y="-58.9" style="font-family:Times New Roman;font-size:14.00;">to_processor_port :boolean</text>
<text text-anchor="start" x="257.5" y="-41.9" style="font-family:Times New Roman;font-size:14.00;">processor_port_ref :string</text>
<text text-anchor="start" x="257.5" y="-24.9" style="font-family:Times New Roman;font-size:14.00;">created_at :datetime</text>
<text text-anchor="start" x="257.5" y="-7.9" style="font-family:Times New Roman;font-size:14.00;">updated_at :datetime</text>
</g>
<!-- User -->
<g id="node4" class="node"><title>User</title>
<polyline style="fill:none;stroke:black;" points="716,-566 930,-566 "/>
<path style="fill:none;stroke:black;" d="M930,-566C936,-566 942,-572 942,-578"/>
<polyline style="fill:none;stroke:black;" points="942,-578 942,-927 "/>
<path style="fill:none;stroke:black;" d="M942,-927C942,-933 936,-939 930,-939"/>
<polyline style="fill:none;stroke:black;" points="930,-939 716,-939 "/>
<path style="fill:none;stroke:black;" d="M716,-939C710,-939 704,-933 704,-927"/>
<polyline style="fill:none;stroke:black;" points="704,-927 704,-578 "/>
<path style="fill:none;stroke:black;" d="M704,-578C704,-572 710,-566 716,-566"/>
<text text-anchor="middle" x="823" y="-921.9" style="font-family:Times New Roman;font-size:14.00;">User</text>
<polyline style="fill:none;stroke:black;" points="704,-914 942,-914 "/>
<text text-anchor="start" x="712" y="-897.4" style="font-family:Times New Roman;font-size:14.00;">email :string</text>
<text text-anchor="start" x="712" y="-880.4" style="font-family:Times New Roman;font-size:14.00;">encrypted_password :string</text>
<text text-anchor="start" x="712" y="-863.4" style="font-family:Times New Roman;font-size:14.00;">password_salt :string</text>
<text text-anchor="start" x="712" y="-846.4" style="font-family:Times New Roman;font-size:14.00;">reset_password_token :string</text>
<text text-anchor="start" x="712" y="-829.4" style="font-family:Times New Roman;font-size:14.00;">remember_token :string</text>
<text text-anchor="start" x="712" y="-812.4" style="font-family:Times New Roman;font-size:14.00;">remember_created_at :datetime</text>
<text text-anchor="start" x="712" y="-795.4" style="font-family:Times New Roman;font-size:14.00;">current_sign_in_at :datetime</text>
<text text-anchor="start" x="712" y="-778.4" style="font-family:Times New Roman;font-size:14.00;">last_sign_in_at :datetime</text>
<text text-anchor="start" x="712" y="-761.4" style="font-family:Times New Roman;font-size:14.00;">current_sign_in_ip :string</text>
<text text-anchor="start" x="712" y="-744.4" style="font-family:Times New Roman;font-size:14.00;">last_sign_in_ip :string</text>
<text text-anchor="start" x="712" y="-727.4" style="font-family:Times New Roman;font-size:14.00;">confirmation_token :string</text>
<text text-anchor="start" x="712" y="-710.4" style="font-family:Times New Roman;font-size:14.00;">confirmed_at :datetime</text>
<text text-anchor="start" x="712" y="-693.4" style="font-family:Times New Roman;font-size:14.00;">confirmation_sent_at :datetime</text>
<text text-anchor="start" x="712" y="-676.4" style="font-family:Times New Roman;font-size:14.00;">authentication_token :string</text>
<text text-anchor="start" x="712" y="-659.4" style="font-family:Times New Roman;font-size:14.00;">created_at :datetime</text>
<text text-anchor="start" x="712" y="-642.4" style="font-family:Times New Roman;font-size:14.00;">updated_at :datetime</text>
<text text-anchor="start" x="712" y="-625.4" style="font-family:Times New Roman;font-size:14.00;">name :string</text>
<text text-anchor="start" x="712" y="-608.4" style="font-family:Times New Roman;font-size:14.00;">cached_slug :string</text>
<text text-anchor="start" x="712" y="-591.4" style="font-family:Times New Roman;font-size:14.00;">deleted_at :datetime</text>
<text text-anchor="start" x="712" y="-574.4" style="font-family:Times New Roman;font-size:14.00;">homepage :string</text>
</g>
<!-- Role -->
<g id="node12" class="node"><title>Role</title>
<polyline style="fill:none;stroke:black;" points="753,-317 894,-317 "/>
<path style="fill:none;stroke:black;" d="M894,-317C900,-317 906,-323 906,-329"/>
<polyline style="fill:none;stroke:black;" points="906,-329 906,-389 "/>
<path style="fill:none;stroke:black;" d="M906,-389C906,-395 900,-401 894,-401"/>
<polyline style="fill:none;stroke:black;" points="894,-401 753,-401 "/>
<path style="fill:none;stroke:black;" d="M753,-401C747,-401 741,-395 741,-389"/>
<polyline style="fill:none;stroke:black;" points="741,-389 741,-329 "/>
<path style="fill:none;stroke:black;" d="M741,-329C741,-323 747,-317 753,-317"/>
<text text-anchor="middle" x="823" y="-383.9" style="font-family:Times New Roman;font-size:14.00;">Role</text>
<polyline style="fill:none;stroke:black;" points="741,-376 906,-376 "/>
<text text-anchor="start" x="748.5" y="-358.9" style="font-family:Times New Roman;font-size:14.00;">name :string</text>
<text text-anchor="start" x="748.5" y="-341.9" style="font-family:Times New Roman;font-size:14.00;">created_at :datetime</text>
<text text-anchor="start" x="748.5" y="-324.9" style="font-family:Times New Roman;font-size:14.00;">updated_at :datetime</text>
</g>
<!-- User&#45;&gt;Role -->
<g id="edge2" class="edge"><title>User&#45;&gt;Role</title>
<path style="fill:none;stroke:black;" d="M823,-556C823,-502 823,-449 823,-411"/>
<polygon style="fill:black;stroke:black;" points="823,-556 818.5,-566 823,-561 823,-566 823,-566 823,-566 823,-561 827.5,-566 823,-556 823,-556"/>
<polygon style="fill:black;stroke:black;" points="823,-411 827.5,-401 823,-406 823,-401 823,-401 823,-401 823,-406 818.5,-401 823,-411 823,-411"/>
</g>
<!-- ConfigField -->
<g id="node5" class="node"><title>ConfigField</title>
<polyline style="fill:none;stroke:black;" points="289,-206 504,-206 "/>
<path style="fill:none;stroke:black;" d="M504,-206C510,-206 516,-212 516,-218"/>
<polyline style="fill:none;stroke:black;" points="516,-218 516,-499 "/>
<path style="fill:none;stroke:black;" d="M516,-499C516,-505 510,-511 504,-511"/>
<polyline style="fill:none;stroke:black;" points="504,-511 289,-511 "/>
<path style="fill:none;stroke:black;" d="M289,-511C283,-511 277,-505 277,-499"/>
<polyline style="fill:none;stroke:black;" points="277,-499 277,-218 "/>
<path style="fill:none;stroke:black;" d="M277,-218C277,-212 283,-206 289,-206"/>
<text text-anchor="middle" x="396" y="-493.9" style="font-family:Times New Roman;font-size:14.00;">ConfigField</text>
<polyline style="fill:none;stroke:black;" points="277,-486 516,-486 "/>
<text text-anchor="start" x="284.5" y="-469.4" style="font-family:Times New Roman;font-size:14.00;">name :string</text>
<text text-anchor="start" x="284.5" y="-452.4" style="font-family:Times New Roman;font-size:14.00;">label :string</text>
<text text-anchor="start" x="284.5" y="-435.4" style="font-family:Times New Roman;font-size:14.00;">description :text</text>
<text text-anchor="start" x="284.5" y="-418.4" style="font-family:Times New Roman;font-size:14.00;">field_type_cd :integer</text>
<text text-anchor="start" x="284.5" y="-401.4" style="font-family:Times New Roman;font-size:14.00;">data_type :string</text>
<text text-anchor="start" x="284.5" y="-384.4" style="font-family:Times New Roman;font-size:14.00;">config_group :string</text>
<text text-anchor="start" x="284.5" y="-367.4" style="font-family:Times New Roman;font-size:14.00;">required :boolean</text>
<text text-anchor="start" x="284.5" y="-350.4" style="font-family:Times New Roman;font-size:14.00;">default_value :text</text>
<text text-anchor="start" x="284.5" y="-333.4" style="font-family:Times New Roman;font-size:14.00;">fixed :boolean</text>
<text text-anchor="start" x="284.5" y="-316.4" style="font-family:Times New Roman;font-size:14.00;">hidden :boolean</text>
<text text-anchor="start" x="284.5" y="-299.4" style="font-family:Times New Roman;font-size:14.00;">multiple :boolean</text>
<text text-anchor="start" x="284.5" y="-282.4" style="font-family:Times New Roman;font-size:14.00;">constrained_to_options :boolean</text>
<text text-anchor="start" x="284.5" y="-265.4" style="font-family:Times New Roman;font-size:14.00;">additional_constraints :text</text>
<text text-anchor="start" x="284.5" y="-248.4" style="font-family:Times New Roman;font-size:14.00;">make_input_port :boolean</text>
<text text-anchor="start" x="284.5" y="-231.4" style="font-family:Times New Roman;font-size:14.00;">created_at :datetime</text>
<text text-anchor="start" x="284.5" y="-214.4" style="font-family:Times New Roman;font-size:14.00;">updated_at :datetime</text>
</g>
<!-- ConfigField&#45;&gt;ConfigFieldMapping -->
<g id="edge4" class="edge"><title>ConfigField&#45;&gt;ConfigFieldMapping</title>
<path style="fill:none;stroke:black;" d="M389,-198C388,-185 387,-172 387,-160"/>
<ellipse style="fill:none;stroke:black;" cx="389" cy="-202" rx="4" ry="4"/>
<ellipse style="fill:black;stroke:black;" cx="387" cy="-156" rx="4" ry="4"/>
<text text-anchor="middle" x="416" y="-174.9" style="font-family:Times New Roman;font-size:14.00;">mapping</text>
</g>
<!-- Component -->
<g id="node6" class="node"><title>Component</title>
<polyline style="fill:none;stroke:black;" points="460,-677 606,-677 "/>
<path style="fill:none;stroke:black;" d="M606,-677C612,-677 618,-683 618,-689"/>
<polyline style="fill:none;stroke:black;" points="618,-689 618,-817 "/>
<path style="fill:none;stroke:black;" d="M618,-817C618,-823 612,-829 606,-829"/>
<polyline style="fill:none;stroke:black;" points="606,-829 460,-829 "/>
<path style="fill:none;stroke:black;" d="M460,-829C454,-829 448,-823 448,-817"/>
<polyline style="fill:none;stroke:black;" points="448,-817 448,-689 "/>
<path style="fill:none;stroke:black;" d="M448,-689C448,-683 454,-677 460,-677"/>
<text text-anchor="middle" x="533" y="-811.9" style="font-family:Times New Roman;font-size:14.00;">Component</text>
<polyline style="fill:none;stroke:black;" points="448,-804 618,-804 "/>
<text text-anchor="start" x="456" y="-786.9" style="font-family:Times New Roman;font-size:14.00;">version :string</text>
<text text-anchor="start" x="456" y="-769.9" style="font-family:Times New Roman;font-size:14.00;">label :string</text>
<text text-anchor="start" x="456" y="-752.9" style="font-family:Times New Roman;font-size:14.00;">title :string</text>
<text text-anchor="start" x="456" y="-735.9" style="font-family:Times New Roman;font-size:14.00;">submitter_type :string</text>
<text text-anchor="start" x="456" y="-718.9" style="font-family:Times New Roman;font-size:14.00;">description :text</text>
<text text-anchor="start" x="456" y="-701.9" style="font-family:Times New Roman;font-size:14.00;">created_at :datetime</text>
<text text-anchor="start" x="456" y="-684.9" style="font-family:Times New Roman;font-size:14.00;">updated_at :datetime</text>
</g>
<!-- Component&#45;&gt;ConfigField -->
<g id="edge10" class="edge"><title>Component&#45;&gt;ConfigField</title>
<path style="fill:none;stroke:black;" d="M503,-669C489,-626 470,-572 452,-521"/>
<ellipse style="fill:none;stroke:black;" cx="504.595" cy="-673.255" rx="4.00001" ry="4.00001"/>
<polygon style="fill:black;stroke:black;" points="451.874,-520.578 453.31,-509.707 450.437,-515.789 449,-511 449,-511 449,-511 450.437,-515.789 444.69,-512.293 451.874,-520.578 451.874,-520.578"/>
</g>
<!-- Port -->
<g id="node8" class="node"><title>Port</title>
<polyline style="fill:none;stroke:black;" points="559,-274 711,-274 "/>
<path style="fill:none;stroke:black;" d="M711,-274C717,-274 723,-280 723,-286"/>
<polyline style="fill:none;stroke:black;" points="723,-286 723,-431 "/>
<path style="fill:none;stroke:black;" d="M723,-431C723,-437 717,-443 711,-443"/>
<polyline style="fill:none;stroke:black;" points="711,-443 559,-443 "/>
<path style="fill:none;stroke:black;" d="M559,-443C553,-443 547,-437 547,-431"/>
<polyline style="fill:none;stroke:black;" points="547,-431 547,-286 "/>
<path style="fill:none;stroke:black;" d="M547,-286C547,-280 553,-274 559,-274"/>
<text text-anchor="middle" x="635" y="-425.9" style="font-family:Times New Roman;font-size:14.00;">Port</text>
<polyline style="fill:none;stroke:black;" points="547,-418 723,-418 "/>
<text text-anchor="start" x="555" y="-401.4" style="font-family:Times New Roman;font-size:14.00;">usage_type_cd :integer</text>
<text text-anchor="start" x="555" y="-384.4" style="font-family:Times New Roman;font-size:14.00;">name :string</text>
<text text-anchor="start" x="555" y="-367.4" style="font-family:Times New Roman;font-size:14.00;">label :string</text>
<text text-anchor="start" x="555" y="-350.4" style="font-family:Times New Roman;font-size:14.00;">description :text</text>
<text text-anchor="start" x="555" y="-333.4" style="font-family:Times New Roman;font-size:14.00;">depth :integer</text>
<text text-anchor="start" x="555" y="-316.4" style="font-family:Times New Roman;font-size:14.00;">visible :boolean</text>
<text text-anchor="start" x="555" y="-299.4" style="font-family:Times New Roman;font-size:14.00;">created_at :datetime</text>
<text text-anchor="start" x="555" y="-282.4" style="font-family:Times New Roman;font-size:14.00;">updated_at :datetime</text>
</g>
<!-- Component&#45;&gt;Port -->
<g id="edge6" class="edge"><title>Component&#45;&gt;Port</title>
<path style="fill:none;stroke:black;" d="M523,-669C520,-626 522,-574 534,-530 541,-503 554,-477 568,-452"/>
<ellipse style="fill:none;stroke:black;" cx="523" cy="-673" rx="4" ry="4"/>
<polygon style="fill:black;stroke:black;" points="568.144,-451.742 576.934,-445.185 570.572,-447.371 573,-443 573,-443 573,-443 570.572,-447.371 569.066,-440.815 568.144,-451.742 568.144,-451.742"/>
<text text-anchor="middle" x="573" y="-534.9" style="font-family:Times New Roman;font-size:14.00;">input_ports</text>
</g>
<!-- Component&#45;&gt;Port -->
<g id="edge8" class="edge"><title>Component&#45;&gt;Port</title>
<path style="fill:none;stroke:black;" d="M571,-669C586,-633 603,-589 613,-548 620,-517 625,-484 629,-453"/>
<ellipse style="fill:none;stroke:black;" cx="569.405" cy="-673.255" rx="4.00001" ry="4.00001"/>
<polygon style="fill:black;stroke:black;" points="629.005,-452.95 634.478,-443.448 629.502,-447.975 630,-443 630,-443 630,-443 629.502,-447.975 625.522,-442.552 629.005,-452.95 629.005,-452.95"/>
<text text-anchor="middle" x="660" y="-534.9" style="font-family:Times New Roman;font-size:14.00;">output_ports</text>
</g>
<!-- ConfigFieldOption -->
<g id="node7" class="node"><title>ConfigFieldOption</title>
<polyline style="fill:none;stroke:black;" points="972,-702 1113,-702 "/>
<path style="fill:none;stroke:black;" d="M1113,-702C1119,-702 1125,-708 1125,-714"/>
<polyline style="fill:none;stroke:black;" points="1125,-714 1125,-791 "/>
<path style="fill:none;stroke:black;" d="M1125,-791C1125,-797 1119,-803 1113,-803"/>
<polyline style="fill:none;stroke:black;" points="1113,-803 972,-803 "/>
<path style="fill:none;stroke:black;" d="M972,-803C966,-803 960,-797 960,-791"/>
<polyline style="fill:none;stroke:black;" points="960,-791 960,-714 "/>
<path style="fill:none;stroke:black;" d="M960,-714C960,-708 966,-702 972,-702"/>
<text text-anchor="middle" x="1042" y="-785.9" style="font-family:Times New Roman;font-size:14.00;">ConfigFieldOption</text>
<polyline style="fill:none;stroke:black;" points="960,-778 1125,-778 "/>
<text text-anchor="start" x="967.5" y="-761.4" style="font-family:Times New Roman;font-size:14.00;">label :string</text>
<text text-anchor="start" x="967.5" y="-744.4" style="font-family:Times New Roman;font-size:14.00;">value :string</text>
<text text-anchor="start" x="967.5" y="-727.4" style="font-family:Times New Roman;font-size:14.00;">created_at :datetime</text>
<text text-anchor="start" x="967.5" y="-710.4" style="font-family:Times New Roman;font-size:14.00;">updated_at :datetime</text>
</g>
<!-- PortMapping -->
<g id="node10" class="node"><title>PortMapping</title>
<polyline style="fill:none;stroke:black;" points="546,-25 724,-25 "/>
<path style="fill:none;stroke:black;" d="M724,-25C730,-25 736,-31 736,-37"/>
<polyline style="fill:none;stroke:black;" points="736,-37 736,-114 "/>
<path style="fill:none;stroke:black;" d="M736,-114C736,-120 730,-126 724,-126"/>
<polyline style="fill:none;stroke:black;" points="724,-126 546,-126 "/>
<path style="fill:none;stroke:black;" d="M546,-126C540,-126 534,-120 534,-114"/>
<polyline style="fill:none;stroke:black;" points="534,-114 534,-37 "/>
<path style="fill:none;stroke:black;" d="M534,-37C534,-31 540,-25 546,-25"/>
<text text-anchor="middle" x="635" y="-108.9" style="font-family:Times New Roman;font-size:14.00;">PortMapping</text>
<polyline style="fill:none;stroke:black;" points="534,-101 736,-101 "/>
<text text-anchor="start" x="542" y="-84.4" style="font-family:Times New Roman;font-size:14.00;">to_processor_port :boolean</text>
<text text-anchor="start" x="542" y="-67.4" style="font-family:Times New Roman;font-size:14.00;">processor_port_ref :string</text>
<text text-anchor="start" x="542" y="-50.4" style="font-family:Times New Roman;font-size:14.00;">created_at :datetime</text>
<text text-anchor="start" x="542" y="-33.4" style="font-family:Times New Roman;font-size:14.00;">updated_at :datetime</text>
</g>
<!-- Port&#45;&gt;PortMapping -->
<g id="edge14" class="edge"><title>Port&#45;&gt;PortMapping</title>
<path style="fill:none;stroke:black;" d="M635,-266C635,-222 635,-173 635,-134"/>
<ellipse style="fill:none;stroke:black;" cx="635" cy="-270" rx="4" ry="4"/>
<ellipse style="fill:black;stroke:black;" cx="635" cy="-130" rx="4" ry="4"/>
<text text-anchor="middle" x="664" y="-174.9" style="font-family:Times New Roman;font-size:14.00;">mapping</text>
</g>
<!-- ExampleValue -->
<g id="node14" class="node"><title>ExampleValue</title>
<polyline style="fill:none;stroke:black;" points="766,-25 907,-25 "/>
<path style="fill:none;stroke:black;" d="M907,-25C913,-25 919,-31 919,-37"/>
<polyline style="fill:none;stroke:black;" points="919,-37 919,-114 "/>
<path style="fill:none;stroke:black;" d="M919,-114C919,-120 913,-126 907,-126"/>
<polyline style="fill:none;stroke:black;" points="907,-126 766,-126 "/>
<path style="fill:none;stroke:black;" d="M766,-126C760,-126 754,-120 754,-114"/>
<polyline style="fill:none;stroke:black;" points="754,-114 754,-37 "/>
<path style="fill:none;stroke:black;" d="M754,-37C754,-31 760,-25 766,-25"/>
<text text-anchor="middle" x="836" y="-108.9" style="font-family:Times New Roman;font-size:14.00;">ExampleValue</text>
<polyline style="fill:none;stroke:black;" points="754,-101 919,-101 "/>
<text text-anchor="start" x="761.5" y="-84.4" style="font-family:Times New Roman;font-size:14.00;">data_type :string</text>
<text text-anchor="start" x="761.5" y="-67.4" style="font-family:Times New Roman;font-size:14.00;">value :text</text>
<text text-anchor="start" x="761.5" y="-50.4" style="font-family:Times New Roman;font-size:14.00;">created_at :datetime</text>
<text text-anchor="start" x="761.5" y="-33.4" style="font-family:Times New Roman;font-size:14.00;">updated_at :datetime</text>
</g>
<!-- Port&#45;&gt;ExampleValue -->
<g id="edge12" class="edge"><title>Port&#45;&gt;ExampleValue</title>
<path style="fill:none;stroke:black;" d="M690,-267C704,-246 718,-225 732,-206 749,-182 769,-156 787,-134"/>
<ellipse style="fill:none;stroke:black;" cx="687.985" cy="-270.527" rx="4.00002" ry="4.00002"/>
<polygon style="fill:black;stroke:black;" points="787,-134 796.6,-128.7 790,-130 793,-126 793,-126 793,-126 790,-130 789.4,-123.3 787,-134 787,-134"/>
</g>
<!-- Helper -->
<g id="node9" class="node"><title>Helper</title>
<polyline style="fill:none;stroke:black;" points="1154,-694 1295,-694 "/>
<path style="fill:none;stroke:black;" d="M1295,-694C1301,-694 1307,-700 1307,-706"/>
<polyline style="fill:none;stroke:black;" points="1307,-706 1307,-800 "/>
<path style="fill:none;stroke:black;" d="M1307,-800C1307,-806 1301,-812 1295,-812"/>
<polyline style="fill:none;stroke:black;" points="1295,-812 1154,-812 "/>
<path style="fill:none;stroke:black;" d="M1154,-812C1148,-812 1142,-806 1142,-800"/>
<polyline style="fill:none;stroke:black;" points="1142,-800 1142,-706 "/>
<path style="fill:none;stroke:black;" d="M1142,-706C1142,-700 1148,-694 1154,-694"/>
<text text-anchor="middle" x="1224" y="-794.9" style="font-family:Times New Roman;font-size:14.00;">Helper</text>
<polyline style="fill:none;stroke:black;" points="1142,-787 1307,-787 "/>
<text text-anchor="start" x="1149.5" y="-769.9" style="font-family:Times New Roman;font-size:14.00;">label :string</text>
<text text-anchor="start" x="1149.5" y="-752.9" style="font-family:Times New Roman;font-size:14.00;">title :string</text>
<text text-anchor="start" x="1149.5" y="-735.9" style="font-family:Times New Roman;font-size:14.00;">description :text</text>
<text text-anchor="start" x="1149.5" y="-718.9" style="font-family:Times New Roman;font-size:14.00;">created_at :datetime</text>
<text text-anchor="start" x="1149.5" y="-701.9" style="font-family:Times New Roman;font-size:14.00;">updated_at :datetime</text>
</g>
<!-- Ability -->
<g id="node11" class="node"><title>Ability</title>
<polygon style="fill:none;stroke:black;" points="1324,-728 1324,-778 1384,-778 1384,-728 1324,-728"/>
<text text-anchor="middle" x="1354" y="-760.9" style="font-family:Times New Roman;font-size:14.00;">Ability</text>
<polyline style="fill:none;stroke:black;" points="1324,-753 1384,-753 "/>
<text text-anchor="middle" x="1354" y="-735.9" style="font-family:Times New Roman;font-size:14.00;"> </text>
</g>
<!-- TavernaActivity -->
<g id="node13" class="node"><title>TavernaActivity</title>
<polyline style="fill:none;stroke:black;" points="1414,-694 1555,-694 "/>
<path style="fill:none;stroke:black;" d="M1555,-694C1561,-694 1567,-700 1567,-706"/>
<polyline style="fill:none;stroke:black;" points="1567,-706 1567,-800 "/>
<path style="fill:none;stroke:black;" d="M1567,-800C1567,-806 1561,-812 1555,-812"/>
<polyline style="fill:none;stroke:black;" points="1555,-812 1414,-812 "/>
<path style="fill:none;stroke:black;" d="M1414,-812C1408,-812 1402,-806 1402,-800"/>
<polyline style="fill:none;stroke:black;" points="1402,-800 1402,-706 "/>
<path style="fill:none;stroke:black;" d="M1402,-706C1402,-700 1408,-694 1414,-694"/>
<text text-anchor="middle" x="1484" y="-794.9" style="font-family:Times New Roman;font-size:14.00;">TavernaActivity</text>
<polyline style="fill:none;stroke:black;" points="1402,-787 1567,-787 "/>
<text text-anchor="start" x="1409.5" y="-769.9" style="font-family:Times New Roman;font-size:14.00;">title :string</text>
<text text-anchor="start" x="1409.5" y="-752.9" style="font-family:Times New Roman;font-size:14.00;">description :text</text>
<text text-anchor="start" x="1409.5" y="-735.9" style="font-family:Times New Roman;font-size:14.00;">discovery_url :string</text>
<text text-anchor="start" x="1409.5" y="-718.9" style="font-family:Times New Roman;font-size:14.00;">created_at :datetime</text>
<text text-anchor="start" x="1409.5" y="-701.9" style="font-family:Times New Roman;font-size:14.00;">updated_at :datetime</text>
</g>
</g>
</svg>
