<?xml version="1.0" encoding="UTF-8" standalone="no"?>
<!DOCTYPE svg PUBLIC "-//W3C//DTD SVG 1.0//EN"
 "http://www.w3.org/TR/2001/REC-SVG-20010904/DTD/svg10.dtd" [
 <!ATTLIST svg xmlns:xlink CDATA #FIXED "http://www.w3.org/1999/xlink">
]>
<!-- Generated by Graphviz version 2.20.2 (Tue Mar &#160;2 19:03:41 UTC 2010)
     For user: (jits) Jits,,, -->
<!-- Title: models_diagram Pages: 1 -->
<svg width="1276pt" height="282pt"
 viewBox="0.00 0.00 1276.00 282.00" xmlns="http://www.w3.org/2000/svg" xmlns:xlink="http://www.w3.org/1999/xlink">
<g id="graph0" class="graph" transform="scale(1 1) rotate(0) translate(4 278)">
<title>models_diagram</title>
<polygon style="fill:white;stroke:white;" points="-4,4 -4,-278 1272,-278 1272,4 -4,4"/>
<!-- _diagram_info -->
<g id="node1" class="node"><title>_diagram_info</title>
<text text-anchor="start" x="7.5" y="-257.8" style="font-family:Times New Roman;font-size:13.00;">Models diagram</text>
<text text-anchor="start" x="7.5" y="-240.8" style="font-family:Times New Roman;font-size:13.00;">Date: Jan 27 2011 &#45; 14:47</text>
<text text-anchor="start" x="7.5" y="-223.8" style="font-family:Times New Roman;font-size:13.00;">Migration version: 20110126113319</text>
<text text-anchor="start" x="7.5" y="-206.8" style="font-family:Times New Roman;font-size:13.00;">Generated by RailRoady 0.11.3</text>
<text text-anchor="start" x="7.5" y="-189.8" style="font-family:Times New Roman;font-size:13.00;">http://railroady.prestonlee.com</text>
</g>
<!-- Helper -->
<g id="node2" class="node"><title>Helper</title>
<ellipse style="fill:none;stroke:black;" cx="308" cy="-227" rx="41.8891" ry="18"/>
<text text-anchor="middle" x="308" y="-222.9" style="font-family:Times New Roman;font-size:14.00;">Helper</text>
</g>
<!-- Port -->
<g id="node3" class="node"><title>Port</title>
<ellipse style="fill:none;stroke:black;" cx="335" cy="-108" rx="30.7734" ry="18"/>
<text text-anchor="middle" x="335" y="-103.9" style="font-family:Times New Roman;font-size:14.00;">Port</text>
</g>
<!-- ExampleValue -->
<g id="node4" class="node"><title>ExampleValue</title>
<ellipse style="fill:none;stroke:black;" cx="172" cy="-18" rx="78.0216" ry="18"/>
<text text-anchor="middle" x="172" y="-13.9" style="font-family:Times New Roman;font-size:14.00;">ExampleValue</text>
</g>
<!-- Port&#45;&gt;ExampleValue -->
<g id="edge2" class="edge"><title>Port&#45;&gt;ExampleValue</title>
<path style="fill:none;stroke:black;" d="M305,-91C279,-77 240,-56 211,-40"/>
<ellipse style="fill:none;stroke:black;" cx="308.527" cy="-93.0154" rx="4.00002" ry="4.00002"/>
<polygon style="fill:black;stroke:black;" points="210.742,-39.8565 204.185,-31.0663 206.371,-37.4282 202,-35 202,-35 202,-35 206.371,-37.4282 199.815,-38.9337 210.742,-39.8565 210.742,-39.8565"/>
</g>
<!-- PortMapping -->
<g id="node9" class="node"><title>PortMapping</title>
<ellipse style="fill:none;stroke:black;" cx="339" cy="-18" rx="70.878" ry="18"/>
<text text-anchor="middle" x="339" y="-13.9" style="font-family:Times New Roman;font-size:14.00;">PortMapping</text>
</g>
<!-- Port&#45;&gt;PortMapping -->
<g id="edge4" class="edge"><title>Port&#45;&gt;PortMapping</title>
<path style="fill:none;stroke:black;" d="M336,-82C337,-70 338,-56 338,-44"/>
<ellipse style="fill:none;stroke:black;" cx="336" cy="-86" rx="4" ry="4"/>
<ellipse style="fill:black;stroke:black;" cx="338" cy="-40" rx="4" ry="4"/>
<text text-anchor="middle" x="369" y="-58.9" style="font-family:Times New Roman;font-size:14.00;">mapping</text>
</g>
<!-- TavernaActivity -->
<g id="node5" class="node"><title>TavernaActivity</title>
<ellipse style="fill:none;stroke:black;" cx="603" cy="-227" rx="84.9707" ry="18"/>
<text text-anchor="middle" x="603" y="-222.9" style="font-family:Times New Roman;font-size:14.00;">TavernaActivity</text>
</g>
<!-- ConfigFieldMapping -->
<g id="node6" class="node"><title>ConfigFieldMapping</title>
<ellipse style="fill:none;stroke:black;" cx="538" cy="-18" rx="103.037" ry="18"/>
<text text-anchor="middle" x="538" y="-13.9" style="font-family:Times New Roman;font-size:14.00;">ConfigFieldMapping</text>
</g>
<!-- ConfigFieldOption -->
<g id="node7" class="node"><title>ConfigFieldOption</title>
<ellipse style="fill:none;stroke:black;" cx="802" cy="-227" rx="95.8938" ry="18"/>
<text text-anchor="middle" x="802" y="-222.9" style="font-family:Times New Roman;font-size:14.00;">ConfigFieldOption</text>
</g>
<!-- Ability -->
<g id="node8" class="node"><title>Ability</title>
<polygon style="fill:none;stroke:black;" points="976,-245 916,-245 916,-209 976,-209 976,-245"/>
<text text-anchor="middle" x="946" y="-222.9" style="font-family:Times New Roman;font-size:14.00;">Ability</text>
</g>
<!-- ExternalResource -->
<g id="node10" class="node"><title>ExternalResource</title>
<ellipse style="fill:none;stroke:black;" cx="1089" cy="-227" rx="95.1989" ry="18"/>
<text text-anchor="middle" x="1089" y="-222.9" style="font-family:Times New Roman;font-size:14.00;">ExternalResource</text>
</g>
<!-- ConfigField -->
<g id="node11" class="node"><title>ConfigField</title>
<ellipse style="fill:none;stroke:black;" cx="538" cy="-108" rx="63.2343" ry="18"/>
<text text-anchor="middle" x="538" y="-103.9" style="font-family:Times New Roman;font-size:14.00;">ConfigField</text>
</g>
<!-- ConfigField&#45;&gt;ConfigFieldMapping -->
<g id="edge6" class="edge"><title>ConfigField&#45;&gt;ConfigFieldMapping</title>
<path style="fill:none;stroke:black;" d="M538,-82C538,-70 538,-56 538,-44"/>
<ellipse style="fill:none;stroke:black;" cx="538" cy="-86" rx="4" ry="4"/>
<ellipse style="fill:black;stroke:black;" cx="538" cy="-40" rx="4" ry="4"/>
<text text-anchor="middle" x="568" y="-58.9" style="font-family:Times New Roman;font-size:14.00;">mapping</text>
</g>
<!-- Component -->
<g id="node12" class="node"><title>Component</title>
<ellipse style="fill:none;stroke:black;" cx="434" cy="-227" rx="66.2071" ry="18"/>
<text text-anchor="middle" x="434" y="-222.9" style="font-family:Times New Roman;font-size:14.00;">Component</text>
</g>
<!-- Component&#45;&gt;Port -->
<g id="edge8" class="edge"><title>Component&#45;&gt;Port</title>
<path style="fill:none;stroke:black;" d="M401,-206C372,-188 334,-163 333,-162 329,-154 328,-145 329,-136"/>
<ellipse style="fill:none;stroke:black;" cx="404.527" cy="-208.015" rx="4.00002" ry="4.00002"/>
<polygon style="fill:black;stroke:black;" points="329.005,-135.95 334.478,-126.448 329.502,-130.975 330,-126 330,-126 330,-126 329.502,-130.975 325.522,-125.552 329.005,-135.95 329.005,-135.95"/>
<text text-anchor="middle" x="377" y="-148.9" style="font-family:Times New Roman;font-size:14.00;">input_ports</text>
</g>
<!-- Component&#45;&gt;Port -->
<g id="edge10" class="edge"><title>Component&#45;&gt;Port</title>
<path style="fill:none;stroke:black;" d="M433,-201C431,-183 426,-160 412,-144 402,-132 388,-124 374,-118"/>
<ellipse style="fill:none;stroke:black;" cx="433.504" cy="-205.031" rx="4.00001" ry="4.00001"/>
<polygon style="fill:black;stroke:black;" points="373.578,-117.874 365.293,-110.69 368.789,-116.437 364,-115 364,-115 364,-115 368.789,-116.437 362.707,-119.31 373.578,-117.874 373.578,-117.874"/>
<text text-anchor="middle" x="470" y="-148.9" style="font-family:Times New Roman;font-size:14.00;">output_ports</text>
</g>
<!-- Component&#45;&gt;ConfigField -->
<g id="edge12" class="edge"><title>Component&#45;&gt;ConfigField</title>
<path style="fill:none;stroke:black;" d="M470,-206C487,-195 506,-180 518,-162 524,-154 528,-144 531,-136"/>
<ellipse style="fill:none;stroke:black;" cx="466.255" cy="-208.675" rx="4.00002" ry="4.00002"/>
<polygon style="fill:black;stroke:black;" points="531.126,-135.578 538.31,-127.293 532.563,-130.789 534,-126 534,-126 534,-126 532.563,-130.789 529.69,-124.707 531.126,-135.578 531.126,-135.578"/>
</g>
<!-- User -->
<g id="node13" class="node"><title>User</title>
<ellipse style="fill:none;stroke:black;" cx="1235" cy="-227" rx="32.8565" ry="18"/>
<text text-anchor="middle" x="1235" y="-222.9" style="font-family:Times New Roman;font-size:14.00;">User</text>
</g>
<!-- Role -->
<g id="node14" class="node"><title>Role</title>
<ellipse style="fill:none;stroke:black;" cx="1235" cy="-108" rx="30.7734" ry="18"/>
<text text-anchor="middle" x="1235" y="-103.9" style="font-family:Times New Roman;font-size:14.00;">Role</text>
</g>
<!-- User&#45;&gt;Role -->
<g id="edge14" class="edge"><title>User&#45;&gt;Role</title>
<path style="fill:none;stroke:black;" d="M1235,-199C1235,-180 1235,-155 1235,-136"/>
<polygon style="fill:black;stroke:black;" points="1235,-199 1230.5,-209 1235,-204 1235,-209 1235,-209 1235,-209 1235,-204 1239.5,-209 1235,-199 1235,-199"/>
<polygon style="fill:black;stroke:black;" points="1235,-136 1239.5,-126 1235,-131 1235,-126 1235,-126 1235,-126 1235,-131 1230.5,-126 1235,-136 1235,-136"/>
</g>
</g>
</svg>
