<?xml version="1.0" encoding="UTF-8" standalone="no"?>
<!DOCTYPE svg PUBLIC "-//W3C//DTD SVG 1.0//EN"
 "http://www.w3.org/TR/2001/REC-SVG-20010904/DTD/svg10.dtd" [
 <!ATTLIST svg xmlns:xlink CDATA #FIXED "http://www.w3.org/1999/xlink">
]>
<!-- Generated by Graphviz version 2.20.2 (Tue Mar &#160;2 19:03:41 UTC 2010)
     For user: (jits) Jits,,, -->
<!-- Title: models_diagram Pages: 1 -->
<svg width="2058pt" height="174pt"
 viewBox="0.00 0.00 2058.00 174.00" xmlns="http://www.w3.org/2000/svg" xmlns:xlink="http://www.w3.org/1999/xlink">
<g id="graph0" class="graph" transform="scale(1 1) rotate(0) translate(4 170)">
<title>models_diagram</title>
<polygon style="fill:white;stroke:white;" points="-4,4 -4,-170 2054,-170 2054,4 -4,4"/>
<!-- _diagram_info -->
<g id="node1" class="node"><title>_diagram_info</title>
<text text-anchor="start" x="7.5" y="-149.8" style="font-family:Times New Roman;font-size:13.00;">Models diagram</text>
<text text-anchor="start" x="7.5" y="-132.8" style="font-family:Times New Roman;font-size:13.00;">Date: Jan 25 2011 &#45; 10:15</text>
<text text-anchor="start" x="7.5" y="-115.8" style="font-family:Times New Roman;font-size:13.00;">Migration version: 20110121152141</text>
<text text-anchor="start" x="7.5" y="-98.8" style="font-family:Times New Roman;font-size:13.00;">Generated by RailRoady 0.11.3</text>
<text text-anchor="start" x="7.5" y="-81.8" style="font-family:Times New Roman;font-size:13.00;">http://railroady.prestonlee.com</text>
</g>
<!-- Helper -->
<g id="node2" class="node"><title>Helper</title>
<ellipse style="fill:none;stroke:black;" cx="308" cy="-119" rx="41.8891" ry="18"/>
<text text-anchor="middle" x="308" y="-114.9" style="font-family:Times New Roman;font-size:14.00;">Helper</text>
</g>
<!-- Port -->
<g id="node3" class="node"><title>Port</title>
<ellipse style="fill:none;stroke:black;" cx="399" cy="-119" rx="30.7734" ry="18"/>
<text text-anchor="middle" x="399" y="-114.9" style="font-family:Times New Roman;font-size:14.00;">Port</text>
</g>
<!-- ExampleValue -->
<g id="node4" class="node"><title>ExampleValue</title>
<ellipse style="fill:none;stroke:black;" cx="526" cy="-119" rx="78.0216" ry="18"/>
<text text-anchor="middle" x="526" y="-114.9" style="font-family:Times New Roman;font-size:14.00;">ExampleValue</text>
</g>
<!-- TavernaActivity -->
<g id="node5" class="node"><title>TavernaActivity</title>
<ellipse style="fill:none;stroke:black;" cx="707" cy="-119" rx="84.9707" ry="18"/>
<text text-anchor="middle" x="707" y="-114.9" style="font-family:Times New Roman;font-size:14.00;">TavernaActivity</text>
</g>
<!-- ConfigFieldMapping -->
<g id="node6" class="node"><title>ConfigFieldMapping</title>
<ellipse style="fill:none;stroke:black;" cx="913" cy="-119" rx="103.037" ry="18"/>
<text text-anchor="middle" x="913" y="-114.9" style="font-family:Times New Roman;font-size:14.00;">ConfigFieldMapping</text>
</g>
<!-- ConfigFieldOption -->
<g id="node7" class="node"><title>ConfigFieldOption</title>
<ellipse style="fill:none;stroke:black;" cx="1130" cy="-119" rx="95.8938" ry="18"/>
<text text-anchor="middle" x="1130" y="-114.9" style="font-family:Times New Roman;font-size:14.00;">ConfigFieldOption</text>
</g>
<!-- Ability -->
<g id="node8" class="node"><title>Ability</title>
<polygon style="fill:none;stroke:black;" points="1304,-137 1244,-137 1244,-101 1304,-101 1304,-137"/>
<text text-anchor="middle" x="1274" y="-114.9" style="font-family:Times New Roman;font-size:14.00;">Ability</text>
</g>
<!-- PortMapping -->
<g id="node9" class="node"><title>PortMapping</title>
<ellipse style="fill:none;stroke:black;" cx="1393" cy="-119" rx="70.878" ry="18"/>
<text text-anchor="middle" x="1393" y="-114.9" style="font-family:Times New Roman;font-size:14.00;">PortMapping</text>
</g>
<!-- ExternalResource -->
<g id="node10" class="node"><title>ExternalResource</title>
<ellipse style="fill:none;stroke:black;" cx="1577" cy="-119" rx="95.1989" ry="18"/>
<text text-anchor="middle" x="1577" y="-114.9" style="font-family:Times New Roman;font-size:14.00;">ExternalResource</text>
</g>
<!-- ConfigField -->
<g id="node11" class="node"><title>ConfigField</title>
<ellipse style="fill:none;stroke:black;" cx="1753" cy="-119" rx="63.2343" ry="18"/>
<text text-anchor="middle" x="1753" y="-114.9" style="font-family:Times New Roman;font-size:14.00;">ConfigField</text>
</g>
<!-- Component -->
<g id="node12" class="node"><title>Component</title>
<ellipse style="fill:none;stroke:black;" cx="1900" cy="-119" rx="66.2071" ry="18"/>
<text text-anchor="middle" x="1900" y="-114.9" style="font-family:Times New Roman;font-size:14.00;">Component</text>
</g>
<!-- User -->
<g id="node13" class="node"><title>User</title>
<ellipse style="fill:none;stroke:black;" cx="2017" cy="-119" rx="32.8565" ry="18"/>
<text text-anchor="middle" x="2017" y="-114.9" style="font-family:Times New Roman;font-size:14.00;">User</text>
</g>
<!-- Role -->
<g id="node14" class="node"><title>Role</title>
<ellipse style="fill:none;stroke:black;" cx="2017" cy="-18" rx="30.7734" ry="18"/>
<text text-anchor="middle" x="2017" y="-13.9" style="font-family:Times New Roman;font-size:14.00;">Role</text>
</g>
<!-- User&#45;&gt;Role -->
<g id="edge2" class="edge"><title>User&#45;&gt;Role</title>
<path style="fill:none;stroke:black;" d="M2017,-91C2017,-77 2017,-61 2017,-46"/>
<polygon style="fill:black;stroke:black;" points="2017,-91 2012.5,-101 2017,-96 2017,-101 2017,-101 2017,-101 2017,-96 2021.5,-101 2017,-91 2017,-91"/>
<polygon style="fill:black;stroke:black;" points="2017,-46 2021.5,-36 2017,-41 2017,-36 2017,-36 2017,-36 2017,-41 2012.5,-36 2017,-46 2017,-46"/>
</g>
</g>
</svg>
